{"glyphs":{"0":{"ha":747,"x_min":43,"x_max":707,"o":"m 43 456 q 67 631 43 544 q 135 783 92 717 q 240 891 179 850 q 375 932 301 932 q 510 891 449 932 q 615 783 571 850 q 683 631 658 717 q 707 456 707 544 q 683 280 707 365 q 615 128 658 194 q 510 20 571 61 q 375 -21 449 -21 q 240 20 301 -21 q 135 128 179 61 q 67 280 92 194 q 43 456 43 365 m 375 1 q 450 17 417 1 q 506 74 483 33 q 542 181 529 114 q 554 351 554 249 l 554 560 q 542 733 554 665 q 506 840 529 801 q 450 894 483 879 q 375 910 417 910 q 300 894 333 910 q 244 838 267 878 q 208 730 221 797 q 196 560 196 663 l 196 351 q 208 181 196 249 q 244 74 221 114 q 300 17 267 33 q 375 1 333 1 "},"1":{"ha":747,"x_min":185,"x_max":607,"o":"m 467 915 l 467 22 l 607 22 l 607 0 l 192 0 l 192 22 l 332 22 l 332 886 l 185 868 l 185 890 l 454 925 l 467 915 "},"2":{"ha":747,"x_min":56,"x_max":686,"o":"m 189 789 q 244 763 222 789 q 265 710 265 738 q 235 646 265 667 q 171 625 206 625 q 101 651 126 625 q 76 719 76 678 q 101 808 76 769 q 167 874 125 847 q 263 915 208 901 q 379 929 318 929 q 483 918 431 929 q 576 881 535 907 q 644 815 618 856 q 669 714 669 774 q 650 624 669 668 q 598 538 631 581 q 522 454 565 496 q 428 369 478 413 l 133 114 l 524 114 q 615 153 586 114 q 658 261 643 193 q 667 294 664 285 q 676 303 669 303 q 686 269 686 303 l 686 258 l 671 0 l 56 0 l 56 72 l 396 392 q 497 531 465 458 q 528 694 528 603 q 484 848 528 796 q 344 900 440 900 q 277 892 311 900 q 215 872 243 885 q 169 840 188 858 q 151 800 151 821 q 164 785 151 785 q 166 785 165 785 q 169 786 167 786 q 179 788 175 788 q 189 789 183 789 "},"3":{"ha":747,"x_min":100,"x_max":675,"o":"m 128 778 q 141 824 128 797 q 183 874 154 850 q 260 915 213 899 q 376 932 307 932 q 481 919 431 932 q 572 878 532 906 q 635 808 611 850 q 658 708 658 767 q 635 614 658 654 q 578 547 611 574 q 509 505 544 519 q 449 489 474 490 q 621 403 567 464 q 675 254 675 342 q 652 147 675 197 q 588 59 629 97 q 489 -1 546 21 q 364 -24 432 -24 q 271 -12 318 -24 q 186 23 224 0 q 124 81 149 46 q 100 161 100 115 q 126 232 100 207 q 189 257 153 257 q 251 235 225 257 q 278 165 278 213 q 270 128 278 143 q 252 104 263 114 q 230 90 242 94 q 211 82 218 85 q 201 74 204 79 q 199 64 199 68 q 208 44 199 53 q 273 12 233 24 q 349 0 313 0 q 425 16 390 0 q 486 63 460 32 q 527 142 513 94 q 542 251 542 189 q 533 331 542 290 q 500 403 524 371 q 435 456 476 436 q 332 476 394 476 q 283 474 310 476 q 238 472 256 472 q 213 478 221 472 q 204 492 204 485 q 213 506 204 500 q 238 513 221 513 q 283 510 256 513 q 332 507 310 507 q 408 519 374 507 q 469 556 443 531 q 510 622 496 582 q 525 719 525 663 q 521 785 525 751 q 501 846 517 818 q 453 892 485 874 q 367 910 421 910 q 289 899 326 910 q 232 874 251 889 q 224 860 224 867 q 236 843 224 847 q 276 818 260 836 q 293 767 293 800 q 269 713 293 733 q 208 693 246 693 q 151 715 175 693 q 128 778 128 738 "},"4":{"ha":747,"x_min":51,"x_max":700,"o":"m 515 957 l 515 308 l 678 308 l 678 449 l 700 449 l 700 156 l 678 156 l 678 286 l 515 286 l 515 22 l 639 22 l 639 0 l 261 0 l 261 22 l 383 22 l 383 286 l 51 286 l 51 315 q 63 337 51 315 q 94 393 74 358 q 140 472 114 428 q 197 563 167 517 q 316 744 267 669 q 397 867 365 819 q 444 935 429 914 q 460 957 460 957 l 515 957 m 78 308 l 383 308 l 383 799 q 361 765 379 792 q 319 703 343 739 q 271 631 296 668 q 229 568 246 594 q 183 493 208 535 q 137 413 158 451 q 99 346 115 375 q 78 308 82 317 "},"5":{"ha":747,"x_min":92,"x_max":693,"o":"m 531 913 q 568 917 557 913 q 582 935 579 921 q 588 949 585 944 q 599 954 592 954 q 613 922 613 954 q 606 885 613 907 q 586 842 600 863 q 549 808 572 822 q 492 793 526 793 l 153 793 l 153 558 q 210 575 174 567 q 321 583 247 583 q 457 567 390 583 q 576 515 524 550 q 661 424 629 479 q 693 289 693 368 q 663 158 693 215 q 584 60 633 100 q 472 -2 535 19 q 340 -24 408 -24 q 254 -12 299 -24 q 174 22 210 0 q 115 78 138 44 q 92 156 92 111 q 117 220 92 197 q 174 243 142 243 q 230 224 206 243 q 254 164 254 204 q 247 129 254 143 q 228 107 239 115 q 204 94 217 99 q 182 88 192 90 q 174 81 175 85 q 172 72 172 76 q 182 56 172 64 q 251 16 211 31 q 340 1 290 1 q 497 73 440 1 q 553 288 553 144 q 535 401 553 351 q 487 484 518 450 q 413 536 456 518 q 321 554 371 554 q 206 545 247 554 q 125 515 164 536 l 125 858 q 138 898 125 883 q 178 913 150 913 l 531 913 "},"6":{"ha":747,"x_min":68,"x_max":706,"o":"m 240 493 q 310 567 265 542 q 415 592 356 592 q 540 565 486 592 q 631 493 594 538 q 687 393 668 449 q 706 281 706 338 q 683 162 706 218 q 620 63 661 106 q 524 -6 579 19 q 401 -31 468 -31 q 276 -1 336 -31 q 169 80 215 28 q 96 203 124 132 q 68 360 68 275 q 111 562 68 463 q 232 742 154 661 q 335 830 282 793 q 439 890 388 867 q 535 928 490 914 q 613 947 579 942 l 613 914 q 540 892 578 906 q 467 859 503 878 q 397 817 431 840 q 338 765 364 793 q 268 651 289 717 q 240 493 247 586 m 235 354 l 235 229 q 242 137 235 179 q 267 63 249 94 q 317 13 285 31 q 399 -6 349 -6 q 481 13 450 -6 q 529 65 513 32 q 551 141 546 97 q 556 233 556 185 l 556 360 q 550 442 556 404 q 528 507 544 479 q 481 551 511 535 q 404 567 451 567 q 298 529 338 567 q 244 443 258 492 q 238 408 242 431 q 235 354 235 386 "},"7":{"ha":747,"x_min":107,"x_max":682,"o":"m 107 674 l 156 911 l 664 911 l 682 886 l 438 436 q 399 338 408 382 q 389 260 389 293 q 396 197 389 219 q 413 143 403 174 q 422 111 418 125 q 426 76 426 97 q 422 40 426 58 q 410 8 418 22 q 388 -15 401 -6 q 354 -24 374 -24 q 292 6 308 -24 q 276 78 276 36 q 297 201 276 132 q 372 371 318 269 l 603 793 l 225 793 q 166 767 189 793 q 128 674 143 740 l 107 674 "},"8":{"ha":747,"x_min":83,"x_max":672,"o":"m 401 485 q 389 482 389 482 q 401 479 389 479 q 480 466 433 479 q 569 424 526 453 q 642 347 611 394 q 672 233 672 300 q 646 120 672 168 q 578 41 619 72 q 483 -6 536 10 q 378 -21 431 -21 q 272 -6 325 -21 q 178 41 219 10 q 110 119 136 72 q 83 232 83 167 q 113 347 83 300 q 186 424 143 394 q 276 466 229 453 q 354 479 322 479 q 367 482 367 479 q 354 485 367 482 q 263 507 306 490 q 186 552 219 524 q 133 620 153 581 q 114 711 114 660 q 135 799 114 760 q 193 865 157 838 q 277 906 229 892 q 378 921 325 921 q 478 906 431 921 q 563 865 526 892 q 620 798 599 838 q 642 710 642 758 q 622 620 642 660 q 569 552 603 581 q 492 507 536 524 q 401 485 449 490 m 244 714 q 263 608 244 650 q 303 542 281 567 q 349 507 326 517 q 378 497 371 497 q 407 507 385 497 q 452 542 429 517 q 493 608 475 567 q 511 714 511 650 q 476 849 511 797 q 378 900 442 900 q 279 849 314 900 q 244 714 244 797 m 217 233 q 255 65 217 129 q 378 0 293 0 q 501 65 463 0 q 539 236 539 129 q 516 347 539 303 q 465 419 493 392 q 410 457 436 446 q 378 468 385 468 q 345 457 371 468 q 291 419 319 446 q 240 347 263 392 q 217 233 217 301 "},"9":{"ha":747,"x_min":69,"x_max":707,"o":"m 535 407 q 465 333 510 358 q 360 308 419 308 q 235 335 289 308 q 144 407 181 363 q 88 507 107 451 q 69 619 69 563 q 92 738 69 682 q 155 838 114 794 q 251 906 196 881 q 374 931 307 931 q 499 901 439 931 q 606 820 560 872 q 679 697 651 768 q 707 540 707 625 q 664 338 707 438 q 543 158 621 239 q 440 70 493 107 q 336 10 388 33 q 240 -28 285 -14 q 163 -47 196 -42 l 163 -14 q 235 8 197 -6 q 308 41 272 22 q 378 83 344 60 q 438 135 411 107 q 507 249 486 183 q 535 407 528 314 m 540 546 l 540 671 q 533 763 540 721 q 508 838 526 806 q 458 888 490 869 q 376 906 426 906 q 293 887 324 906 q 246 835 263 868 q 224 759 229 803 q 219 667 219 715 l 219 540 q 225 458 219 496 q 247 393 231 421 q 293 349 264 365 q 371 333 322 333 q 431 344 404 333 q 476 371 457 354 q 510 410 496 388 q 531 457 524 432 q 537 492 533 469 q 540 546 540 514 "},"\u0007":{"ha":694,"x_min":0,"x_max":0,"o":""},"\u0005":{"ha":515,"x_min":111,"x_max":424,"o":"m 272 718 q 185 737 228 718 q 111 794 143 756 l 129 813 q 194 770 157 785 q 269 756 231 756 q 344 770 308 756 q 406 813 379 785 l 424 794 q 356 737 396 756 q 272 718 317 718 "},"\u0006":{"ha":496,"x_min":175,"x_max":325,"o":"m 325 757 q 303 703 325 725 q 250 682 282 682 q 197 703 218 682 q 175 757 175 725 q 197 810 175 789 q 250 832 218 832 q 303 810 282 832 q 325 757 325 789 "},"\b":{"ha":531,"x_min":172,"x_max":381,"o":"m 381 767 q 350 693 381 724 q 276 663 319 663 q 203 693 233 663 q 172 767 172 724 q 203 840 172 810 q 276 871 233 871 q 350 840 319 871 q 381 767 381 810 m 194 767 q 218 708 194 732 q 276 685 242 685 q 335 708 311 685 q 358 767 358 732 q 335 825 358 801 q 276 849 311 849 q 218 825 242 849 q 194 767 194 801 "},"\n":{"ha":650,"x_min":185,"x_max":447,"o":"m 196 1014 l 303 1065 l 197 771 l 185 772 l 196 1014 m 339 1014 l 447 1065 l 340 771 l 329 772 l 339 1014 "},"\u000b":{"ha":500,"x_min":193,"x_max":367,"o":"m 243 -128 q 254 -165 243 -147 q 301 -182 265 -182 q 323 -181 314 -182 q 339 -178 332 -179 q 356 -175 350 -175 q 367 -183 367 -175 q 340 -203 367 -190 q 281 -215 313 -215 q 218 -194 243 -215 q 193 -131 193 -172 q 210 -61 193 -93 q 247 0 226 -29 l 274 0 q 243 -128 243 -69 "},"\f":{"ha":594,"x_min":104,"x_max":479,"o":"m 288 665 l 104 850 l 114 854 l 292 761 l 471 854 l 479 850 l 296 665 l 288 665 "},"\r":{"ha":408,"x_min":50,"x_max":378,"o":"m 274 22 l 378 22 l 378 0 l 50 0 l 50 22 l 154 22 l 154 522 l 50 522 l 50 544 l 274 544 l 274 22 "},"\u0019":{"ha":799,"x_min":-7,"x_max":792,"o":"m 732 1000 l 792 1000 l 53 -97 l -7 -97 l 732 1000 "},"\u001a":{"ha":717,"x_min":33,"x_max":697,"o":"m 474 522 l 257 522 l 257 22 l 474 22 l 474 522 m 33 22 l 138 22 l 138 522 l 35 522 l 35 544 l 138 544 l 138 660 q 199 869 138 796 q 379 942 260 942 q 467 932 425 942 q 540 904 508 922 q 592 861 572 886 q 611 806 611 836 q 593 753 611 774 q 539 732 575 732 q 483 753 504 732 q 461 801 461 774 q 474 846 461 828 q 507 871 488 864 q 513 876 513 872 q 474 906 513 892 q 381 919 436 919 q 285 878 314 919 q 257 746 257 838 l 257 544 l 593 544 l 593 22 l 697 22 l 697 0 l 33 0 l 33 22 "},"\u001b":{"ha":717,"x_min":33,"x_max":697,"o":"m 593 935 l 593 22 l 697 22 l 697 0 l 33 0 l 33 22 l 138 22 l 138 522 l 33 522 l 33 544 l 138 544 l 138 639 q 146 747 138 693 q 177 844 154 801 q 240 915 200 888 q 343 942 281 942 q 428 924 396 942 q 474 889 461 906 l 474 900 l 593 935 m 257 522 l 257 22 l 474 22 l 475 815 q 456 799 469 806 q 425 792 442 792 q 383 808 401 792 q 365 847 365 825 q 376 881 365 865 q 401 901 386 897 q 407 906 407 903 q 390 914 407 908 q 357 919 372 919 q 303 908 324 919 q 273 880 283 897 q 260 840 263 863 q 257 797 257 818 l 257 544 l 361 544 l 361 522 l 257 522 "},"\u001c":{"ha":832,"x_min":46,"x_max":797,"o":"m 161 364 l 161 913 l 46 913 l 46 935 l 425 935 l 425 913 l 296 913 l 296 464 l 475 643 l 475 610 l 296 431 l 296 22 l 581 22 q 661 39 629 22 q 714 87 693 56 q 747 161 735 118 q 771 257 760 204 q 786 286 776 286 q 797 253 797 286 l 797 44 q 790 15 797 29 q 757 0 782 0 l 46 0 l 46 22 l 161 22 l 161 331 l 60 228 l 60 261 l 161 364 "},"\u001d":{"ha":396,"x_min":36,"x_max":372,"o":"m 146 389 l 146 911 l 51 911 l 51 933 l 265 933 l 265 493 l 372 600 l 372 567 l 265 460 l 265 22 l 363 22 l 363 0 l 51 0 l 51 22 l 146 22 l 146 356 l 36 246 l 36 279 l 146 389 "},"\u001e":{"ha":707,"x_min":47,"x_max":671,"o":"m 47 36 l 526 911 l 258 911 q 190 901 222 911 q 133 865 158 890 q 91 798 107 840 q 74 692 75 756 l 54 692 l 54 933 l 661 933 l 661 900 l 176 22 l 442 22 q 526 36 489 22 q 589 80 563 50 q 631 159 615 110 q 649 279 646 208 l 671 279 l 671 0 l 47 0 l 47 36 m 383 971 l 375 971 l 193 1156 l 201 1161 l 379 1067 l 558 1161 l 568 1156 l 383 971 "},"\u001f":{"ha":558,"x_min":72,"x_max":517,"o":"m 503 544 l 503 511 l 197 22 l 360 22 q 460 60 426 22 q 500 182 494 99 l 517 182 l 517 0 l 72 0 l 72 31 l 382 522 l 242 522 q 195 516 217 522 q 157 493 174 510 q 129 449 140 476 q 114 378 118 421 l 97 378 l 97 544 l 503 544 m 288 665 l 104 850 l 114 854 l 292 761 l 471 854 l 479 850 l 296 665 l 288 665 "}," ":{"ha":374,"x_min":0,"x_max":0,"o":""},"!":{"ha":374,"x_min":114,"x_max":275,"o":"m 186 232 q 176 378 182 293 q 156 547 171 463 q 144 598 151 568 q 131 663 138 628 q 119 734 124 697 q 114 804 114 771 q 122 867 114 842 q 140 906 129 892 q 166 925 151 919 q 196 931 181 931 q 224 925 210 931 q 249 906 238 919 q 267 867 260 892 q 275 804 275 842 q 270 734 275 771 q 258 663 265 697 q 244 598 251 628 q 233 547 238 568 q 213 378 218 463 q 203 232 207 293 l 186 232 m 272 69 q 251 16 272 38 q 197 -6 229 -6 q 144 16 165 -6 q 122 69 122 38 q 144 123 122 101 q 197 144 165 144 q 251 123 229 144 q 272 69 272 101 "},"\"":{"ha":451,"x_min":76,"x_max":393,"o":"m 354 693 q 353 708 354 700 q 353 722 353 715 q 359 792 353 763 q 372 846 365 822 q 386 890 379 871 q 393 925 393 908 q 380 964 393 942 q 332 986 367 986 q 284 964 297 986 q 271 925 271 942 q 278 890 271 908 q 292 846 285 871 q 305 792 299 822 q 311 722 311 763 q 310 708 311 715 q 310 693 310 700 q 332 669 310 669 q 354 693 354 669 m 160 693 q 159 708 160 700 q 158 722 158 715 q 165 792 158 763 q 178 846 171 822 q 192 890 185 871 q 199 925 199 908 q 185 964 199 942 q 138 986 172 986 q 90 964 103 986 q 76 925 76 942 q 83 890 76 908 q 97 846 90 871 q 110 792 104 822 q 117 722 117 763 q 116 708 117 715 q 115 693 115 700 q 138 669 115 669 q 160 693 160 669 "},"#":{"ha":792,"x_min":40,"x_max":754,"o":"m 324 594 l 528 594 l 572 778 l 608 778 l 563 594 l 754 594 l 742 558 l 554 558 l 514 392 l 713 392 l 700 356 l 504 356 l 458 164 l 422 164 l 469 356 l 265 356 l 221 171 l 185 171 l 231 356 l 40 356 l 53 392 l 239 392 l 279 558 l 75 558 l 86 594 l 289 594 l 333 778 l 369 778 l 324 594 m 275 392 l 478 392 l 518 558 l 315 558 l 275 392 "},"$":{"ha":807,"x_min":79,"x_max":733,"o":"m 481 -97 l 458 -97 l 458 -6 q 432 -8 444 -8 q 407 -8 419 -8 q 340 -4 375 -8 l 340 -97 l 318 -97 l 318 -1 q 228 22 271 7 q 151 57 185 36 q 99 105 118 78 q 79 164 79 132 q 97 213 79 194 q 142 231 115 231 q 189 212 172 231 q 206 171 206 193 q 195 135 206 151 q 169 113 185 119 q 154 99 154 106 q 168 77 154 89 q 205 55 182 65 q 257 35 228 44 q 318 22 286 26 l 318 414 q 148 497 208 429 q 88 660 88 564 q 149 826 88 756 q 318 924 210 897 l 318 1024 l 340 1024 l 340 928 q 406 932 367 932 q 432 932 419 932 q 458 929 446 932 l 458 1024 l 481 1024 l 481 928 q 634 871 585 910 q 683 789 683 832 q 666 738 683 758 q 614 717 649 717 q 567 733 586 717 q 547 778 547 750 q 583 838 547 819 q 594 854 594 843 q 584 869 594 861 q 557 884 574 876 q 520 897 540 892 q 481 906 500 903 l 481 538 q 581 509 535 529 q 660 456 626 489 q 714 378 694 424 q 733 274 733 332 q 719 174 733 221 q 673 92 704 128 q 594 31 642 56 q 481 -4 547 6 l 481 -97 m 458 396 q 396 403 425 400 q 340 410 367 406 l 340 19 q 373 15 360 17 q 401 14 386 14 q 458 18 429 14 l 458 396 m 481 394 l 481 22 q 549 39 514 26 q 611 74 583 51 q 657 132 639 97 q 675 217 675 167 q 631 333 675 292 q 481 394 586 375 m 458 907 q 434 909 447 908 q 407 910 421 910 q 372 908 389 910 q 340 904 356 907 l 340 554 q 397 548 364 550 q 458 540 429 546 l 458 907 m 318 899 q 194 828 239 881 q 149 708 149 776 q 188 612 149 647 q 318 557 228 576 l 318 899 "},"%":{"ha":1039,"x_min":47,"x_max":986,"o":"m 231 -6 l 182 -6 l 800 949 l 849 949 l 231 -6 m 47 682 q 61 780 47 732 q 103 865 75 828 q 174 926 132 903 q 272 949 215 949 q 371 926 329 949 q 440 865 413 903 q 482 780 468 828 q 496 682 496 732 q 483 582 496 631 q 442 495 469 533 q 374 434 415 457 q 278 411 333 411 q 176 435 219 411 q 105 497 133 458 q 62 583 76 535 q 47 682 47 632 m 164 699 l 164 665 q 166 575 164 618 q 178 500 168 532 q 213 449 189 468 q 278 429 236 429 q 335 447 314 429 q 365 497 356 465 q 377 572 375 529 q 379 665 379 615 l 379 699 q 377 787 379 744 q 365 861 375 829 q 333 912 354 893 q 272 931 311 931 q 210 911 232 931 q 178 860 189 892 q 166 786 168 828 q 164 699 164 744 m 538 256 q 551 353 538 306 q 594 439 565 401 q 664 499 622 476 q 763 522 706 522 q 861 499 819 522 q 931 439 903 476 q 972 353 958 401 q 986 256 986 306 q 973 156 986 204 q 933 69 960 107 q 865 8 906 31 q 768 -15 824 -15 q 667 8 710 -15 q 595 70 624 32 q 552 157 567 108 q 538 256 538 206 m 654 272 l 654 239 q 656 149 654 192 q 669 74 658 106 q 703 22 679 42 q 768 3 726 3 q 825 21 804 3 q 856 71 846 39 q 867 146 865 103 q 869 239 869 189 l 869 272 q 867 360 869 318 q 855 435 865 403 q 823 485 844 467 q 763 504 801 504 q 701 485 722 504 q 669 433 679 465 q 656 360 658 401 q 654 272 654 318 "},"&":{"ha":1046,"x_min":35,"x_max":1014,"o":"m 993 22 l 993 0 l 721 0 l 632 138 q 597 109 626 133 q 520 57 568 85 q 409 7 472 29 q 271 -15 346 -15 q 99 43 164 -15 q 35 208 35 101 q 113 401 35 314 q 349 563 190 488 l 283 661 q 264 704 269 681 q 258 750 258 728 q 273 824 258 789 q 315 885 288 858 q 383 926 343 911 q 471 942 422 942 q 596 906 546 942 q 646 801 646 871 q 637 742 646 768 q 607 692 628 715 q 552 645 586 668 q 468 596 518 622 l 701 240 q 814 390 774 311 q 867 544 854 469 l 743 544 l 743 567 l 1014 567 l 1014 544 l 896 544 q 839 372 881 456 q 721 211 797 289 l 847 22 l 993 22 m 563 785 q 557 830 563 806 q 538 874 551 854 q 503 908 525 894 q 450 922 482 922 q 375 899 407 922 q 343 829 343 876 q 347 789 343 810 q 365 749 351 768 l 453 618 q 500 644 479 631 q 535 677 521 658 q 556 722 549 696 q 563 785 563 747 m 167 318 q 182 235 167 281 q 225 150 197 189 q 291 85 253 111 q 376 58 329 58 q 440 69 407 58 q 503 94 472 79 q 561 129 533 110 q 613 165 589 149 l 364 540 q 278 493 315 517 q 217 443 242 469 q 179 386 192 417 q 167 318 167 356 "},"'":{"ha":292,"x_min":90,"x_max":213,"o":"m 174 693 q 173 708 174 700 q 172 722 172 715 q 178 792 172 763 q 192 846 185 822 q 206 890 199 871 q 213 925 213 908 q 199 964 213 942 q 151 986 186 986 q 103 964 117 986 q 90 925 90 942 q 97 890 90 908 q 111 846 104 871 q 124 792 118 822 q 131 722 131 763 q 130 708 131 715 q 129 693 129 700 q 151 669 129 669 q 174 693 174 669 "},"(":{"ha":321,"x_min":57,"x_max":263,"o":"m 149 432 q 155 281 149 358 q 174 131 161 203 q 206 -5 186 58 q 253 -114 225 -68 q 260 -136 260 -125 q 253 -146 260 -146 q 239 -137 244 -146 q 159 -25 193 -90 q 102 115 125 40 q 68 272 79 190 q 57 432 57 353 q 68 592 57 511 q 102 749 79 674 q 159 889 125 824 q 239 1001 193 954 q 257 1014 251 1014 q 263 1006 263 1014 q 253 978 263 996 q 206 868 225 932 q 174 732 186 804 q 155 583 161 660 q 149 432 149 506 "},")":{"ha":321,"x_min":63,"x_max":268,"o":"m 176 432 q 170 583 176 506 q 151 732 164 660 q 119 868 139 804 q 72 978 99 932 q 63 1006 63 996 q 68 1014 63 1014 q 86 1001 74 1014 q 166 889 132 954 q 223 749 200 824 q 257 592 246 674 q 268 432 268 511 q 257 272 268 353 q 223 115 246 190 q 166 -25 200 40 q 86 -137 132 -90 q 72 -146 79 -146 q 65 -136 65 -146 q 72 -114 65 -125 q 119 -5 99 -68 q 151 131 139 58 q 170 281 164 203 q 176 432 176 358 "},"*":{"ha":568,"x_min":51,"x_max":515,"o":"m 303 750 q 360 781 319 761 q 463 810 400 800 q 503 828 492 814 q 515 857 515 842 q 503 890 515 875 q 471 904 490 904 q 425 878 446 904 q 348 802 385 829 q 293 765 311 775 q 299 849 293 804 q 324 935 306 893 q 331 965 331 953 q 317 1000 331 989 q 285 1011 303 1011 q 253 1000 268 1011 q 239 965 239 989 q 246 935 239 951 q 270 849 264 893 q 276 765 276 804 q 222 799 261 774 q 143 875 183 825 q 96 901 122 901 q 64 888 76 901 q 51 856 51 874 q 64 827 51 840 q 104 810 76 814 q 210 779 169 799 q 267 750 251 760 q 210 721 251 740 q 104 690 169 701 q 64 673 76 686 q 51 644 51 660 q 64 613 51 626 q 96 599 76 599 q 143 625 122 599 q 222 701 183 675 q 276 735 261 726 q 270 651 276 696 q 246 565 264 607 q 239 535 239 549 q 253 500 239 511 q 285 489 268 489 q 317 500 303 489 q 331 535 331 511 q 324 565 331 547 q 299 651 306 607 q 293 735 293 696 q 348 698 311 725 q 425 622 385 671 q 471 596 446 596 q 503 610 490 596 q 515 643 515 625 q 503 672 515 658 q 463 690 492 686 q 360 719 400 700 q 303 750 319 739 "},"+":{"ha":538,"x_min":49,"x_max":499,"o":"m 236 422 l 236 610 l 311 610 l 311 422 l 499 422 l 499 347 l 311 347 l 311 160 l 236 160 l 236 347 l 49 347 l 49 422 l 236 422 "},",":{"ha":365,"x_min":114,"x_max":301,"o":"m 301 68 q 292 14 301 43 q 265 -43 283 -15 q 217 -94 246 -71 q 146 -135 188 -118 q 138 -137 140 -137 q 131 -133 131 -137 q 138 -126 131 -131 q 197 -91 172 -112 q 238 -46 222 -69 q 262 1 254 -22 q 269 42 269 24 q 257 75 269 75 q 253 63 253 75 q 232 26 250 39 q 192 14 214 14 q 136 33 158 14 q 114 86 114 51 q 139 144 114 122 q 204 165 164 165 q 273 138 244 165 q 301 68 301 111 "},"-":{"ha":389,"x_min":78,"x_max":326,"o":"m 326 414 l 326 339 l 78 339 l 78 414 l 326 414 "},".":{"ha":299,"x_min":76,"x_max":226,"o":"m 226 69 q 205 16 226 38 q 151 -6 183 -6 q 98 16 119 -6 q 76 69 76 38 q 98 123 76 101 q 151 144 119 144 q 205 123 183 144 q 226 69 226 101 "},"/":{"ha":389,"x_min":0,"x_max":381,"o":"m 343 1000 l 381 1000 l 38 -97 l 0 -97 l 343 1000 "},":":{"ha":314,"x_min":88,"x_max":238,"o":"m 238 69 q 216 16 238 38 q 163 -6 194 -6 q 109 16 131 -6 q 88 69 88 38 q 109 123 88 101 q 163 144 131 144 q 216 123 194 144 q 238 69 238 101 m 238 450 q 216 397 238 418 q 163 375 194 375 q 109 397 131 375 q 88 450 88 418 q 109 503 88 482 q 163 525 131 525 q 216 503 194 525 q 238 450 238 482 "},";":{"ha":336,"x_min":85,"x_max":272,"o":"m 250 450 q 228 397 250 418 q 175 375 207 375 q 122 397 143 375 q 100 450 100 418 q 122 503 100 482 q 175 525 143 525 q 228 503 207 525 q 250 450 250 482 m 272 68 q 263 14 272 43 q 235 -43 254 -15 q 188 -94 217 -71 q 117 -135 158 -118 q 108 -137 111 -137 q 101 -133 101 -137 q 108 -126 101 -131 q 168 -91 143 -112 q 209 -46 193 -69 q 233 1 225 -22 q 240 42 240 24 q 228 75 240 75 q 224 63 224 75 q 203 26 221 39 q 163 14 185 14 q 107 33 129 14 q 85 86 85 51 q 110 144 85 122 q 175 165 135 165 q 244 138 215 165 q 272 68 272 111 "},"<":{"ha":522,"x_min":75,"x_max":440,"o":"m 440 597 l 440 522 l 194 374 l 440 226 l 440 150 l 75 374 l 440 597 "},"=":{"ha":544,"x_min":85,"x_max":476,"o":"m 476 318 l 476 243 l 85 243 l 85 318 l 476 318 m 476 506 l 476 431 l 85 431 l 85 506 l 476 506 "},">":{"ha":522,"x_min":107,"x_max":474,"o":"m 107 226 l 354 374 l 107 522 l 107 597 l 474 374 l 107 150 l 107 226 "},"?":{"ha":560,"x_min":72,"x_max":507,"o":"m 507 725 q 494 650 507 688 q 451 576 481 613 q 393 515 426 546 q 330 456 360 485 q 280 400 300 426 q 260 351 260 374 q 260 322 260 336 q 261 301 260 310 q 263 285 263 292 q 264 272 264 279 q 253 263 264 263 q 242 272 243 263 q 231 335 238 294 q 225 417 225 375 q 228 462 225 440 q 238 501 231 483 q 269 556 251 533 q 305 599 286 579 q 343 639 324 619 q 382 682 363 658 q 419 739 406 711 q 433 794 433 767 q 400 864 433 832 q 294 896 367 896 q 231 890 257 896 q 190 878 206 885 q 167 864 174 871 q 160 853 160 857 q 165 849 160 850 q 211 823 197 842 q 225 782 225 804 q 204 731 225 751 q 147 710 183 710 q 94 731 115 710 q 72 783 72 751 q 87 833 72 808 q 129 876 101 857 q 198 906 157 894 q 292 918 239 918 q 449 869 392 918 q 507 725 507 821 m 326 69 q 305 16 326 38 q 251 -6 283 -6 q 198 16 219 -6 q 176 69 176 38 q 198 123 176 101 q 251 144 219 144 q 305 123 283 144 q 326 69 326 101 "},"@":{"ha":1024,"x_min":64,"x_max":936,"o":"m 515 14 q 335 47 418 14 q 192 138 253 79 q 98 278 132 197 q 64 456 64 360 q 97 637 64 554 q 191 778 131 719 q 334 871 251 838 q 517 904 417 904 q 690 872 613 904 q 823 785 768 840 q 907 658 878 731 q 936 507 936 586 q 919 388 936 443 q 867 292 901 333 q 783 228 833 251 q 668 206 733 206 q 621 210 644 206 q 578 226 597 215 q 546 252 558 236 q 531 292 533 268 q 467 240 503 267 q 381 214 431 214 q 335 222 357 214 q 297 250 314 231 q 269 301 279 269 q 258 378 258 332 q 274 496 258 436 q 321 605 290 556 q 395 685 351 654 q 493 715 439 715 q 565 698 533 715 q 610 656 596 681 l 619 697 l 711 697 l 628 331 q 625 310 625 317 q 646 264 625 279 q 697 249 667 249 q 758 262 724 249 q 824 306 793 275 q 876 386 856 336 q 897 508 897 436 q 871 642 897 578 q 795 756 844 707 q 676 835 746 806 q 517 865 606 865 q 353 835 429 865 q 222 749 278 804 q 135 619 167 694 q 103 456 103 544 q 134 296 103 369 q 221 168 165 222 q 352 83 276 114 q 515 53 428 53 q 652 75 586 53 q 769 133 718 97 q 783 138 778 138 q 800 121 800 138 q 790 101 800 110 q 673 39 746 64 q 515 14 600 14 m 508 678 q 448 647 476 678 q 398 570 419 617 q 364 467 376 524 q 351 360 351 411 q 408 257 351 257 q 472 277 436 257 q 529 333 507 297 l 600 619 q 566 662 590 646 q 508 678 542 678 "},"A":{"ha":918,"x_min":31,"x_max":896,"o":"m 31 22 l 150 22 l 454 946 l 471 946 l 775 22 l 896 22 l 896 0 l 489 0 l 489 22 l 632 22 l 542 290 l 263 290 l 175 22 l 339 22 l 339 0 l 31 0 l 31 22 m 401 710 l 271 313 l 535 313 l 401 710 "},"B":{"ha":831,"x_min":40,"x_max":760,"o":"m 729 717 q 713 634 729 669 q 667 573 696 599 q 599 531 639 547 q 514 507 560 515 q 595 485 551 503 q 675 436 639 468 q 735 358 711 404 q 760 251 760 313 q 680 67 760 133 q 456 0 600 0 l 40 0 l 40 22 l 160 22 l 160 911 l 40 911 l 40 933 l 444 933 q 551 919 500 933 q 642 877 603 904 q 706 809 682 850 q 729 717 729 768 m 294 515 l 444 515 q 506 524 478 515 q 554 555 535 533 q 585 613 574 576 q 596 706 596 650 l 596 728 q 585 815 596 779 q 554 872 574 850 q 507 902 535 893 q 444 911 479 911 l 294 911 l 294 515 m 294 22 l 444 22 q 583 78 544 22 q 622 235 622 133 l 622 268 q 581 435 622 376 q 444 493 540 493 l 294 493 l 294 22 "},"C":{"ha":851,"x_min":53,"x_max":800,"o":"m 793 282 q 800 268 800 282 l 800 0 q 792 -10 800 -10 q 779 -3 786 -10 l 706 78 q 599 -1 658 25 q 474 -26 539 -26 q 321 13 396 -26 q 186 118 246 51 q 90 274 126 185 q 53 467 53 364 q 85 642 53 556 q 174 797 117 729 q 310 907 232 865 q 481 949 389 949 q 599 930 543 949 q 699 875 654 911 l 753 931 q 771 942 764 942 q 779 938 776 942 q 782 921 782 933 l 782 694 q 775 678 782 678 q 765 692 769 678 q 722 785 749 742 q 660 858 696 828 q 579 906 624 889 q 481 924 535 924 q 288 824 350 924 q 225 542 225 725 l 225 386 q 286 97 225 196 q 474 -1 347 -1 q 575 19 529 -1 q 658 75 621 39 q 725 160 696 111 q 779 267 754 210 q 793 282 786 282 "},"D":{"ha":919,"x_min":44,"x_max":889,"o":"m 454 933 q 630 901 550 933 q 767 808 710 868 q 857 663 825 747 q 889 478 889 579 q 858 281 889 369 q 769 131 826 193 q 632 34 713 68 q 454 0 551 0 l 44 0 l 44 22 l 167 22 l 167 911 l 44 911 l 44 933 l 454 933 m 736 513 q 713 701 736 625 q 651 824 690 778 q 560 891 611 871 q 451 911 508 911 l 301 911 l 301 22 l 451 22 q 561 42 510 22 q 651 109 613 61 q 713 238 690 157 q 736 443 736 319 l 736 513 "},"E":{"ha":797,"x_min":46,"x_max":740,"o":"m 300 481 l 300 22 l 524 22 q 604 39 572 22 q 657 87 636 56 q 690 161 678 118 q 714 257 703 204 q 729 286 719 286 q 740 253 740 286 l 740 44 q 700 0 740 0 l 47 0 l 47 22 l 165 22 l 165 911 l 46 911 l 46 933 l 667 933 q 701 900 701 933 l 701 689 q 692 671 701 671 q 681 690 681 671 q 670 759 679 721 q 642 831 661 797 q 590 888 622 865 q 511 911 558 911 l 300 911 l 300 503 l 410 503 q 458 512 440 503 q 487 538 476 521 q 503 578 497 554 q 514 631 508 601 q 525 650 518 650 q 533 633 533 650 l 533 351 q 525 333 533 333 q 514 353 518 333 q 503 406 508 382 q 487 446 497 429 q 458 472 476 463 q 410 481 440 481 l 300 481 "},"F":{"ha":761,"x_min":51,"x_max":707,"o":"m 51 911 l 51 933 l 672 933 q 707 900 707 933 l 707 689 q 697 671 707 671 q 686 690 686 671 q 676 759 685 721 q 647 831 667 797 q 596 888 628 865 q 517 911 564 911 l 306 911 l 306 503 l 415 503 q 464 512 446 503 q 492 538 482 521 q 508 578 503 554 q 519 631 514 601 q 531 650 524 650 q 539 633 539 650 l 539 351 q 531 333 539 333 q 519 353 524 333 q 508 406 514 382 q 492 446 503 429 q 464 472 482 463 q 415 481 446 481 l 306 481 l 306 22 l 425 22 l 425 0 l 54 0 l 54 22 l 171 22 l 171 911 l 51 911 "},"G":{"ha":929,"x_min":50,"x_max":919,"o":"m 476 949 q 599 928 542 949 q 697 871 657 907 l 757 931 q 766 939 763 936 q 776 942 769 942 q 788 926 788 942 l 788 664 q 779 651 788 651 q 767 664 771 651 q 650 865 722 806 q 476 924 578 924 q 373 902 419 924 q 292 835 326 881 q 240 719 258 790 q 221 550 221 649 l 221 379 q 288 94 221 190 q 475 -1 354 -1 q 567 16 532 -1 q 622 60 603 33 q 649 121 642 88 q 656 188 656 154 l 656 318 l 507 318 l 507 340 l 919 340 l 919 318 l 799 318 l 799 271 q 773 137 799 193 q 702 44 747 81 q 598 -9 657 8 q 472 -26 539 -26 q 313 13 389 -26 q 178 118 236 51 q 85 274 119 185 q 50 461 50 363 q 84 649 50 560 q 176 804 118 738 q 311 910 233 871 q 476 949 389 949 "},"H":{"ha":951,"x_min":46,"x_max":922,"o":"m 419 933 l 419 911 l 300 911 l 300 508 l 668 508 l 668 911 l 549 911 l 549 933 l 922 933 l 922 911 l 803 911 l 803 22 l 922 22 l 922 0 l 549 0 l 549 22 l 668 22 l 668 485 l 300 485 l 300 22 l 419 22 l 419 0 l 46 0 l 46 22 l 165 22 l 165 911 l 46 911 l 46 933 l 419 933 "},"I":{"ha":493,"x_min":60,"x_max":433,"o":"m 433 911 l 314 911 l 314 22 l 433 22 l 433 0 l 60 0 l 60 22 l 179 22 l 179 911 l 60 911 l 60 933 l 433 933 l 433 911 "},"J":{"ha":514,"x_min":17,"x_max":494,"o":"m 494 933 l 494 911 l 390 911 l 390 78 q 169 -140 390 -140 q 103 -128 132 -140 q 56 -97 75 -115 q 26 -58 36 -79 q 17 -17 17 -36 q 32 35 17 15 q 79 56 47 56 q 124 37 108 56 q 139 -6 139 18 q 122 -56 139 -36 q 72 -76 106 -76 q 110 -105 86 -94 q 161 -115 133 -115 q 235 -83 214 -115 q 256 25 256 -50 l 256 911 l 128 911 l 128 933 l 494 933 "},"K":{"ha":933,"x_min":47,"x_max":918,"o":"m 404 911 l 293 911 l 293 22 l 404 22 l 404 0 l 47 0 l 47 22 l 158 22 l 158 911 l 47 911 l 47 933 l 404 933 l 404 911 m 703 911 l 583 911 l 583 933 l 857 933 l 857 911 l 739 911 l 414 586 l 807 22 l 918 22 l 918 0 l 525 0 l 525 22 l 646 22 l 303 511 l 703 911 "},"L":{"ha":832,"x_min":42,"x_max":797,"o":"m 771 257 q 786 286 776 286 q 797 253 797 286 l 797 44 q 757 0 797 0 l 42 0 l 42 22 l 161 22 l 161 911 l 42 911 l 42 933 l 428 933 l 428 911 l 296 911 l 296 22 l 581 22 q 661 39 629 22 q 714 87 693 56 q 747 161 735 118 q 771 257 760 204 "},"M":{"ha":1107,"x_min":47,"x_max":1064,"o":"m 47 22 l 158 22 l 158 911 l 47 911 l 47 933 l 304 933 l 560 219 l 807 933 l 1064 933 l 1064 911 l 953 911 l 953 22 l 1064 22 l 1064 0 l 707 0 l 707 22 l 818 22 l 818 893 l 508 0 l 490 0 l 181 888 l 181 22 l 292 22 l 292 0 l 47 0 l 47 22 "},"N":{"ha":913,"x_min":38,"x_max":883,"o":"m 38 22 l 157 22 l 157 911 l 38 911 l 38 933 l 311 933 l 742 229 l 742 911 l 622 911 l 622 933 l 883 933 l 883 911 l 764 911 l 764 -11 l 717 -11 l 179 871 l 179 22 l 299 22 l 299 0 l 38 0 l 38 22 "},"O":{"ha":960,"x_min":56,"x_max":917,"o":"m 486 -26 q 319 15 397 -26 q 182 124 240 56 q 90 280 124 192 q 56 463 56 368 q 90 645 56 557 q 182 801 124 733 q 319 908 240 868 q 486 949 397 949 q 653 908 575 949 q 790 801 732 868 q 883 645 849 733 q 917 463 917 557 q 883 280 917 368 q 790 124 849 192 q 653 15 732 56 q 486 -26 575 -26 m 486 924 q 375 903 424 924 q 294 835 326 882 q 244 715 261 789 q 226 532 226 640 l 226 393 q 293 95 226 192 q 486 -1 360 -1 q 679 95 613 -1 q 746 393 746 192 l 746 532 q 728 718 746 643 q 678 839 711 793 q 597 904 646 885 q 486 924 549 924 "},"P":{"ha":753,"x_min":40,"x_max":714,"o":"m 425 933 q 545 915 492 933 q 636 864 599 897 q 694 784 674 831 q 714 682 714 738 q 694 578 714 625 q 638 499 674 532 q 551 447 601 465 q 439 429 500 429 l 294 429 l 294 22 l 414 22 l 414 0 l 40 0 l 40 22 l 160 22 l 160 911 l 40 911 l 40 933 l 425 933 m 294 451 l 439 451 q 547 501 504 451 q 590 657 590 550 l 590 707 q 547 865 590 818 q 425 911 503 911 l 294 911 l 294 451 "},"Q":{"ha":946,"x_min":56,"x_max":917,"o":"m 486 924 q 375 903 424 924 q 294 835 326 882 q 244 715 261 789 q 226 532 226 640 l 226 393 q 293 95 226 192 q 486 -1 360 -1 q 679 95 613 -1 q 746 393 746 192 l 746 532 q 728 718 746 643 q 678 839 711 793 q 597 904 646 885 q 486 924 549 924 m 572 -15 l 572 -46 q 591 -174 572 -125 q 641 -251 610 -224 q 712 -287 672 -278 q 794 -297 751 -297 q 807 -307 807 -297 q 794 -315 807 -315 q 642 -308 711 -315 q 523 -273 574 -300 q 441 -193 472 -246 q 403 -51 410 -140 l 400 -15 q 263 49 326 3 q 154 159 200 94 q 82 301 108 224 q 56 463 56 379 q 90 645 56 557 q 182 801 124 733 q 319 908 240 868 q 486 949 397 949 q 653 908 575 949 q 790 801 732 868 q 883 645 849 733 q 917 463 917 557 q 890 301 917 379 q 818 159 864 224 q 709 49 772 94 q 572 -15 646 3 "},"R":{"ha":872,"x_min":44,"x_max":864,"o":"m 733 60 q 789 25 746 25 q 851 44 824 25 q 860 47 857 47 q 864 43 864 47 q 860 35 864 39 q 838 20 853 28 q 803 6 824 13 q 760 -6 783 -1 q 713 -11 736 -11 q 660 -4 685 -11 q 618 22 636 3 q 590 72 599 43 q 577 136 581 101 q 573 208 574 171 q 568 282 572 246 q 545 380 561 342 q 508 440 529 418 q 461 469 486 461 q 414 476 436 476 l 299 476 l 299 22 l 418 22 l 418 0 l 44 0 l 44 22 l 164 22 l 164 911 l 44 911 l 44 933 l 436 933 q 549 918 496 933 q 642 874 603 903 q 703 801 681 844 q 726 704 726 758 q 668 559 726 617 q 501 482 610 501 q 579 458 543 471 q 643 422 615 444 q 690 363 671 399 q 718 271 710 326 q 723 213 722 243 q 724 153 724 182 q 727 99 725 124 q 733 60 729 74 m 299 499 l 436 499 q 594 679 594 499 l 594 729 q 436 911 594 911 l 299 911 l 299 499 "},"S":{"ha":753,"x_min":78,"x_max":700,"o":"m 626 943 q 642 954 635 954 q 650 940 650 954 l 650 693 q 640 679 650 679 q 628 693 629 679 q 605 779 622 738 q 558 853 588 821 q 486 904 529 885 q 386 924 443 924 q 312 913 349 924 q 247 882 275 903 q 200 828 218 861 q 182 753 182 796 q 204 672 182 707 q 269 621 226 638 q 340 595 308 606 q 401 576 372 585 q 458 561 431 568 q 518 544 486 554 q 656 452 613 517 q 700 294 700 388 q 676 167 700 226 q 610 65 651 108 q 511 -2 568 22 q 388 -26 454 -26 q 317 -17 351 -26 q 253 6 283 -8 q 199 36 224 19 q 158 68 175 53 l 108 -4 q 90 -18 99 -18 q 78 0 78 -18 l 78 249 q 88 268 78 268 q 103 250 99 268 q 147 144 118 192 q 214 65 175 97 q 299 16 253 33 q 394 -1 344 -1 q 479 14 438 -1 q 553 57 521 29 q 604 126 585 85 q 624 217 624 167 q 607 297 624 257 q 543 358 590 336 q 477 387 506 376 q 421 406 449 397 q 361 425 393 415 q 283 450 329 435 q 142 543 188 482 q 97 678 97 604 q 117 781 97 732 q 174 867 136 829 q 265 926 211 904 q 386 949 318 949 q 445 945 419 949 q 494 935 471 942 q 539 917 517 928 q 586 892 561 906 l 626 943 "},"T":{"ha":860,"x_min":43,"x_max":825,"o":"m 501 22 l 621 22 l 621 0 l 247 0 l 247 22 l 367 22 l 367 911 l 247 911 q 135 846 183 911 q 72 668 88 781 l 43 668 l 64 910 q 92 933 65 933 l 776 933 q 804 910 803 933 l 825 668 l 796 668 q 733 846 781 781 q 621 911 685 911 l 501 911 l 501 22 "},"U":{"ha":886,"x_min":31,"x_max":861,"o":"m 404 933 l 404 911 l 285 911 l 285 232 q 341 59 285 119 q 494 -1 397 -1 q 583 14 542 -1 q 654 59 624 29 q 702 133 685 89 q 719 232 719 176 l 719 911 l 600 911 l 600 933 l 861 933 l 861 911 l 742 911 l 742 232 q 668 38 742 103 q 463 -26 594 -26 q 353 -14 408 -26 q 252 29 297 -1 q 178 109 207 60 q 150 232 150 158 l 150 911 l 31 911 l 31 933 l 404 933 "},"V":{"ha":878,"x_min":15,"x_max":869,"o":"m 390 933 l 390 911 l 265 911 l 510 193 l 740 911 l 621 911 l 621 933 l 869 933 l 869 911 l 769 911 l 472 -14 l 447 -14 l 135 911 l 15 911 l 15 933 l 390 933 "},"W":{"ha":1249,"x_min":38,"x_max":1228,"o":"m 911 911 l 826 911 l 711 583 l 850 182 l 1107 911 l 988 911 l 988 933 l 1228 933 l 1228 911 l 1132 911 l 807 -14 l 789 -14 l 633 418 l 482 -14 l 464 -14 l 140 911 l 38 911 l 38 933 l 911 933 l 911 911 m 801 911 l 596 911 l 699 619 l 801 911 m 526 185 l 621 456 l 464 911 l 272 911 l 526 185 "},"X":{"ha":951,"x_min":36,"x_max":924,"o":"m 438 911 l 311 911 l 506 569 l 717 911 l 582 911 l 582 933 l 874 933 l 874 911 l 749 911 l 521 543 l 817 22 l 924 22 l 924 0 l 551 0 l 551 22 l 664 22 l 438 421 l 188 22 l 326 22 l 326 0 l 36 0 l 36 22 l 157 22 l 422 447 l 158 911 l 39 911 l 39 933 l 438 933 l 438 911 "},"Y":{"ha":919,"x_min":44,"x_max":901,"o":"m 432 933 l 432 911 l 304 911 l 538 519 l 753 911 l 618 911 l 618 933 l 901 933 l 901 911 l 789 911 l 560 494 l 560 22 l 693 22 l 693 0 l 292 0 l 292 22 l 425 22 l 425 458 l 156 911 l 44 911 l 44 933 l 432 933 "},"Z":{"ha":707,"x_min":47,"x_max":671,"o":"m 47 36 l 526 911 l 258 911 q 190 901 222 911 q 133 865 158 890 q 91 798 107 840 q 74 692 75 756 l 54 692 l 54 933 l 661 933 l 661 900 l 176 22 l 442 22 q 526 36 489 22 q 589 80 563 50 q 631 159 615 110 q 649 279 646 208 l 671 279 l 671 0 l 47 0 l 47 36 "},"[":{"ha":299,"x_min":56,"x_max":272,"o":"m 265 -97 l 56 -97 l 56 997 l 272 997 l 272 975 l 169 975 l 169 -75 l 265 -75 l 265 -97 "},"\\":{"ha":411,"x_min":22,"x_max":399,"o":"m 22 971 l 60 971 l 399 -97 l 361 -97 l 22 971 "},"]":{"ha":299,"x_min":47,"x_max":265,"o":"m 151 975 l 47 975 l 47 997 l 265 997 l 265 -97 l 54 -97 l 54 -75 l 151 -75 l 151 975 "},"^":{"ha":514,"x_min":94,"x_max":431,"o":"m 431 467 l 411 457 l 263 771 l 114 457 l 94 467 l 244 876 l 281 876 l 431 467 "},"_":{"ha":404,"x_min":0,"x_max":414,"o":"m 0 -15 l 414 -15 l 414 -44 l 0 -44 l 0 -15 "},"`":{"ha":358,"x_min":75,"x_max":306,"o":"m 75 874 l 194 874 l 306 658 l 296 653 l 75 874 "},"a":{"ha":615,"x_min":63,"x_max":604,"o":"m 160 531 q 224 555 185 546 q 307 564 264 564 q 443 531 399 564 q 488 439 488 499 l 488 103 q 493 40 488 63 q 526 17 499 17 q 563 31 546 17 q 590 69 579 46 q 600 81 596 81 q 604 74 604 81 q 598 49 604 65 q 576 18 592 33 q 537 -8 561 3 q 476 -19 513 -19 q 399 5 421 -19 q 372 58 376 29 q 350 33 364 46 q 316 8 336 19 q 270 -12 296 -4 q 213 -19 244 -19 q 155 -12 182 -19 q 107 9 128 -6 q 74 48 86 24 q 63 106 63 72 q 86 188 63 151 q 151 250 110 225 q 249 288 193 275 q 368 301 304 301 l 368 465 q 343 529 368 513 q 275 546 318 546 q 244 543 260 546 q 215 536 228 540 q 194 526 203 532 q 186 515 186 521 q 190 508 186 511 q 201 499 194 506 q 215 478 211 489 q 218 458 218 468 q 203 424 218 438 q 165 410 189 410 q 128 426 142 410 q 115 461 115 442 q 160 531 115 501 m 368 288 q 295 278 331 285 q 233 257 260 272 q 189 214 206 242 q 172 140 172 186 q 194 50 172 83 q 260 17 217 17 q 291 24 272 17 q 327 42 310 31 q 356 68 344 54 q 368 94 368 82 l 368 288 "},"b":{"ha":719,"x_min":44,"x_max":682,"o":"m 269 483 q 291 510 279 496 q 320 535 303 524 q 362 556 338 547 q 421 564 386 564 q 510 542 464 564 q 595 483 557 521 q 658 391 633 444 q 682 275 682 338 q 661 170 682 222 q 606 76 640 118 q 524 8 571 35 q 425 -18 476 -18 q 370 -10 394 -18 q 326 12 346 -1 q 293 41 307 25 q 269 71 279 57 l 269 0 l 44 0 l 44 22 l 150 22 l 150 911 l 44 911 l 44 933 l 269 933 l 269 483 m 269 114 q 295 74 281 93 q 328 39 310 54 q 370 14 347 24 q 421 4 393 4 q 464 15 443 4 q 501 53 485 26 q 528 127 518 81 q 538 244 538 174 l 538 307 q 528 430 538 383 q 503 501 519 476 q 464 534 486 526 q 415 542 442 542 q 362 532 385 542 q 322 507 339 522 q 292 474 304 492 q 269 440 279 457 l 269 114 "},"c":{"ha":569,"x_min":46,"x_max":549,"o":"m 190 240 q 196 130 190 175 q 217 56 201 85 q 260 15 233 28 q 331 3 288 3 q 402 15 369 3 q 459 49 435 28 q 500 95 483 69 q 525 147 517 121 q 538 161 529 161 q 549 149 549 161 q 546 138 549 146 q 524 88 539 115 q 482 37 508 61 q 417 -3 456 13 q 326 -19 378 -19 q 224 1 275 -19 q 134 59 174 21 q 70 151 94 97 q 46 271 46 204 q 71 390 46 336 q 136 483 96 444 q 228 542 176 521 q 333 564 279 564 q 394 556 363 564 q 453 534 426 549 q 499 498 481 519 q 517 450 517 476 q 500 407 517 424 q 456 390 483 390 q 414 405 432 390 q 396 447 396 419 q 401 477 396 465 q 415 500 406 489 q 419 510 419 504 q 401 528 419 515 q 331 542 382 542 q 268 530 294 542 q 224 490 242 518 q 199 415 207 461 q 190 301 190 369 l 190 240 "},"d":{"ha":719,"x_min":49,"x_max":686,"o":"m 356 911 l 356 933 l 581 933 l 581 22 l 686 22 l 686 0 l 461 0 l 461 72 q 399 8 436 36 q 306 -19 361 -19 q 218 4 264 -19 q 135 68 172 28 q 73 162 97 108 q 49 274 49 215 q 71 380 49 328 q 129 473 93 432 q 213 539 165 514 q 310 564 260 564 q 461 489 410 564 l 461 911 l 356 911 m 193 308 l 193 240 q 201 126 193 172 q 223 53 208 81 q 260 15 238 26 q 311 3 282 3 q 394 32 357 3 q 461 113 431 61 l 461 438 q 438 472 451 454 q 408 506 425 490 q 367 532 390 522 q 315 542 344 542 q 221 490 249 542 q 193 308 193 438 "},"e":{"ha":603,"x_min":44,"x_max":553,"o":"m 546 338 q 524 319 546 319 l 189 319 l 189 178 q 223 44 189 86 q 313 3 257 3 q 393 17 358 3 q 455 53 428 31 q 501 104 482 75 q 532 163 519 133 q 544 176 538 176 q 553 167 553 176 q 549 147 553 157 q 515 83 536 114 q 465 30 494 53 q 396 -6 435 7 q 310 -19 357 -19 q 202 6 251 -19 q 118 71 153 31 q 64 163 83 111 q 44 268 44 214 q 64 375 44 322 q 118 469 83 428 q 201 538 153 511 q 304 564 249 564 q 417 537 371 564 q 490 474 463 510 q 531 399 518 438 q 546 338 544 360 m 189 342 l 394 342 q 415 407 415 342 q 411 456 415 432 q 394 499 407 479 q 360 530 382 518 q 306 542 339 542 q 264 536 285 542 q 226 515 243 531 q 199 472 210 500 q 189 397 189 443 l 189 342 "},"f":{"ha":475,"x_min":33,"x_max":453,"o":"m 33 22 l 138 22 l 138 522 l 35 522 l 35 544 l 138 544 l 138 604 q 142 717 138 656 q 165 825 146 778 q 238 917 193 890 q 326 943 282 943 q 419 914 385 943 q 453 851 453 885 q 442 817 453 832 q 408 803 432 803 q 375 815 389 803 q 361 849 361 826 q 368 874 361 863 q 389 893 375 886 q 392 899 392 894 q 374 913 392 904 q 329 921 357 921 q 257 817 257 921 l 257 544 l 369 544 l 369 522 l 257 522 l 257 22 l 361 22 l 361 0 l 33 0 l 33 22 "},"g":{"ha":592,"x_min":47,"x_max":578,"o":"m 182 347 q 201 239 182 276 q 279 201 221 201 q 357 239 338 201 q 376 347 376 276 l 376 394 q 353 510 376 479 q 279 542 329 542 q 206 510 229 542 q 182 394 182 479 l 182 347 m 200 190 q 118 156 150 176 q 86 96 86 136 q 174 36 86 36 l 397 36 q 519 -5 472 36 q 565 -133 565 -46 q 544 -233 565 -190 q 487 -306 524 -276 q 401 -351 450 -336 q 297 -367 353 -367 q 196 -357 242 -367 q 117 -328 150 -347 q 65 -281 83 -310 q 47 -212 47 -251 q 79 -121 47 -158 q 169 -62 111 -83 q 127 -51 149 -60 q 88 -25 106 -42 q 60 15 71 -8 q 50 71 50 39 q 77 150 50 119 q 171 200 104 181 q 91 267 126 222 q 56 372 56 311 q 70 443 56 408 q 113 505 85 478 q 183 548 140 532 q 279 564 225 564 q 363 553 324 564 q 421 526 401 543 q 526 586 474 586 q 563 575 547 586 q 578 543 578 564 q 568 516 578 529 q 536 503 558 503 q 503 514 515 503 q 492 542 492 525 q 497 564 492 553 q 438 514 469 551 q 503 372 503 456 q 492 314 503 347 q 454 251 481 281 q 385 200 428 221 q 279 179 342 179 q 233 183 253 179 q 200 190 213 186 m 514 -190 q 505 -143 514 -165 q 478 -103 496 -121 q 434 -74 460 -85 q 375 -64 408 -64 l 199 -64 q 173 -73 188 -64 q 145 -98 158 -82 q 123 -137 132 -114 q 114 -186 114 -160 q 122 -240 114 -211 q 151 -291 131 -268 q 208 -329 172 -314 q 301 -344 244 -344 q 374 -336 336 -344 q 443 -309 413 -328 q 494 -261 474 -290 q 514 -190 514 -232 "},"h":{"ha":749,"x_min":42,"x_max":721,"o":"m 258 447 q 333 529 283 494 q 464 564 382 564 q 581 531 539 564 q 624 436 624 499 l 624 22 l 721 22 l 721 0 l 408 0 l 408 22 l 504 22 l 504 421 q 502 459 504 440 q 492 493 500 478 q 467 518 483 508 q 421 528 450 528 q 356 511 385 528 q 304 470 326 494 q 270 419 282 446 q 258 369 258 392 l 258 22 l 356 22 l 356 0 l 42 0 l 42 22 l 139 22 l 139 911 l 42 911 l 42 933 l 258 933 l 258 447 "},"i":{"ha":408,"x_min":50,"x_max":378,"o":"m 274 544 l 274 22 l 378 22 l 378 0 l 50 0 l 50 22 l 154 22 l 154 522 l 50 522 l 50 544 l 274 544 m 285 801 q 264 750 285 771 q 213 729 243 729 q 161 750 182 729 q 140 801 140 771 q 161 853 140 832 q 213 874 182 874 q 264 853 243 874 q 285 801 285 832 "},"j":{"ha":381,"x_min":-22,"x_max":301,"o":"m 297 -43 q 242 -282 297 -199 q 94 -365 188 -365 q 12 -340 46 -365 q -22 -276 -22 -314 q -6 -231 -22 -250 q 38 -211 10 -211 q 81 -231 67 -211 q 94 -272 94 -250 q 83 -313 94 -300 q 61 -332 71 -326 q 74 -341 65 -339 q 93 -343 82 -343 q 150 -320 122 -343 q 178 -243 178 -297 l 178 522 l 65 522 l 65 544 l 297 544 l 297 -43 m 301 801 q 281 750 301 771 q 229 729 260 729 q 178 750 199 729 q 157 801 157 771 q 178 853 157 832 q 229 874 199 874 q 281 853 260 874 q 301 801 301 832 "},"k":{"ha":750,"x_min":43,"x_max":735,"o":"m 274 318 l 313 318 l 518 522 l 400 522 l 400 544 l 660 544 l 660 522 l 550 522 l 389 360 l 638 22 l 735 22 l 735 0 l 399 0 l 399 22 l 496 22 l 304 296 l 274 296 l 274 22 l 371 22 l 371 0 l 43 0 l 43 22 l 154 22 l 154 911 l 43 911 l 43 933 l 274 933 l 274 318 "},"l":{"ha":396,"x_min":49,"x_max":363,"o":"m 265 22 l 363 22 l 363 0 l 49 0 l 49 22 l 146 22 l 146 911 l 49 911 l 49 933 l 265 933 l 265 22 "},"m":{"ha":1058,"x_min":46,"x_max":1026,"o":"m 804 557 q 906 520 876 557 q 936 433 936 483 l 936 22 l 1026 22 l 1026 0 l 729 0 l 729 22 l 817 22 l 817 418 q 815 458 817 439 q 805 491 813 476 q 783 514 797 506 q 746 522 769 522 q 685 505 713 522 q 638 463 658 488 q 607 410 618 438 q 596 361 596 382 l 596 22 l 686 22 l 686 0 l 386 0 l 386 22 l 476 22 l 476 418 q 476 448 476 431 q 469 482 475 465 q 448 510 463 499 q 404 522 433 522 q 348 506 375 522 q 300 465 321 489 q 267 415 279 440 q 256 372 256 389 l 256 22 l 344 22 l 344 0 l 46 0 l 46 22 l 136 22 l 136 522 l 46 522 l 46 544 l 256 544 l 256 439 q 301 498 275 475 q 354 534 326 521 q 410 552 382 547 q 464 557 439 557 q 507 553 485 557 q 548 536 529 549 q 580 500 567 524 q 596 439 593 476 q 671 522 621 488 q 804 557 721 557 "},"n":{"ha":738,"x_min":50,"x_max":706,"o":"m 267 439 q 338 521 290 486 q 463 556 386 556 q 567 528 526 556 q 608 428 608 500 l 608 22 l 706 22 l 706 0 l 392 0 l 392 22 l 489 22 l 489 418 q 470 497 489 472 q 411 522 451 522 q 358 507 383 522 q 312 468 332 492 q 279 417 292 444 q 267 367 267 390 l 267 22 l 364 22 l 364 0 l 50 0 l 50 22 l 147 22 l 147 522 l 50 522 l 50 544 l 267 544 l 267 439 "},"o":{"ha":621,"x_min":40,"x_max":589,"o":"m 315 -19 q 202 9 253 -19 q 115 81 151 38 q 60 175 79 124 q 40 272 40 226 q 60 369 40 318 q 115 464 79 421 q 202 535 151 507 q 315 564 253 564 q 428 535 378 564 q 515 464 479 507 q 569 369 550 421 q 589 272 589 318 q 569 175 589 226 q 515 81 550 124 q 428 9 479 38 q 315 -19 378 -19 m 185 303 l 185 243 q 190 135 185 181 q 208 61 194 90 q 248 17 222 32 q 315 3 274 3 q 383 17 357 3 q 422 61 408 32 q 440 135 435 90 q 444 243 444 181 l 444 303 q 440 406 444 361 q 422 481 435 450 q 383 526 408 511 q 315 542 357 542 q 248 526 274 542 q 208 481 222 511 q 190 406 194 450 q 185 303 185 361 "},"p":{"ha":694,"x_min":36,"x_max":660,"o":"m 515 243 l 515 307 q 506 431 515 385 q 479 502 496 478 q 442 534 463 526 q 399 542 421 542 q 345 529 372 542 q 296 497 318 517 q 260 451 274 476 q 246 401 246 426 l 246 132 q 258 89 246 111 q 292 48 271 67 q 339 17 313 29 q 394 6 365 6 q 444 14 422 6 q 483 47 467 22 q 507 119 499 72 q 515 243 515 165 m 246 474 q 305 535 268 506 q 400 564 342 564 q 492 541 446 564 q 576 478 539 518 q 637 386 614 439 q 660 274 660 333 q 638 160 660 214 q 578 67 615 107 q 494 4 542 28 q 397 -19 447 -19 q 307 3 344 -19 q 246 60 269 25 l 246 -350 l 336 -350 l 336 -372 l 36 -372 l 36 -350 l 126 -350 l 126 522 l 36 522 l 36 544 l 246 544 l 246 474 "},"q":{"ha":707,"x_min":51,"x_max":678,"o":"m 678 522 l 588 522 l 588 -350 l 678 -350 l 678 -372 l 378 -372 l 378 -350 l 468 -350 l 468 60 q 410 4 444 28 q 314 -19 375 -19 q 218 5 265 -19 q 134 70 171 29 q 74 164 97 111 q 51 274 51 217 q 74 382 51 331 q 133 473 97 433 q 216 536 169 513 q 311 560 263 560 q 404 533 364 560 q 468 471 444 507 l 468 544 l 678 544 l 678 522 m 468 389 q 454 446 468 418 q 417 494 440 474 q 367 528 394 515 q 313 542 339 542 q 269 532 290 542 q 232 501 249 522 q 206 444 215 479 q 196 358 196 410 l 196 206 q 204 102 196 142 q 228 41 213 63 q 267 12 244 19 q 317 4 289 4 q 379 17 351 4 q 426 50 407 29 q 457 98 446 71 q 468 154 468 125 l 468 389 "},"r":{"ha":556,"x_min":31,"x_max":536,"o":"m 247 464 q 268 494 254 478 q 303 524 282 510 q 350 547 324 538 q 410 557 376 557 q 456 551 433 557 q 497 534 479 546 q 525 503 514 522 q 536 457 536 485 q 515 405 536 424 q 467 386 494 386 q 415 405 435 386 q 396 453 396 424 q 407 494 396 481 q 426 513 418 507 q 433 522 433 515 q 422 533 433 531 q 394 535 410 535 q 343 523 369 535 q 295 492 317 511 q 260 449 274 472 q 247 403 247 425 l 247 22 l 344 22 l 344 0 l 31 0 l 31 22 l 128 22 l 128 522 l 31 522 l 31 544 l 247 544 l 247 464 "},"s":{"ha":494,"x_min":64,"x_max":457,"o":"m 394 557 q 404 564 401 564 q 408 554 408 564 l 408 406 q 403 397 408 397 q 394 406 396 397 q 380 453 390 429 q 352 497 369 478 q 309 529 335 517 q 250 542 283 542 q 163 513 197 542 q 128 447 128 483 q 140 406 128 421 q 179 382 151 392 q 215 372 193 378 q 258 361 236 367 q 299 351 279 356 q 331 342 318 346 q 431 269 404 317 q 457 169 457 222 q 444 95 457 129 q 408 35 432 61 q 349 -5 383 10 q 268 -19 314 -19 q 174 -3 213 -19 q 111 39 136 13 l 82 -4 q 72 -11 78 -11 q 64 0 64 -11 l 64 149 q 72 160 64 160 q 83 147 79 160 q 151 38 103 74 q 264 3 200 3 q 311 9 286 3 q 358 28 336 15 q 395 63 381 42 q 410 114 410 85 q 399 157 410 136 q 361 193 389 178 q 323 210 344 203 q 278 224 301 218 q 233 235 256 231 q 193 244 211 240 q 103 297 133 258 q 74 388 74 336 q 85 453 74 421 q 120 510 97 485 q 178 549 143 535 q 257 564 213 564 q 363 525 319 564 l 394 557 "},"t":{"ha":469,"x_min":32,"x_max":450,"o":"m 246 544 l 381 544 l 381 522 l 246 522 l 246 144 q 267 44 246 78 q 336 11 288 11 q 397 38 372 11 q 429 113 422 65 q 442 126 431 126 q 450 115 450 126 q 450 111 450 113 q 449 103 450 110 q 405 13 439 46 q 289 -19 371 -19 q 168 25 210 -19 q 126 147 126 69 l 126 522 l 32 522 l 32 544 l 126 544 l 126 703 l 246 763 l 246 544 "},"u":{"ha":750,"x_min":38,"x_max":707,"o":"m 490 104 q 403 16 458 47 q 275 -15 349 -15 q 222 -8 247 -15 q 176 15 196 -1 q 146 61 157 32 q 135 135 135 90 l 135 522 l 38 522 l 38 544 l 254 544 l 254 125 q 268 49 254 72 q 331 25 282 25 q 390 40 361 25 q 442 78 419 56 q 477 128 464 101 q 490 176 490 154 l 490 522 l 393 522 l 393 544 l 610 544 l 610 22 l 707 22 l 707 0 l 490 0 l 490 104 "},"v":{"ha":681,"x_min":35,"x_max":651,"o":"m 35 544 l 350 544 l 350 522 l 253 522 l 400 160 l 544 522 l 446 522 l 446 544 l 651 544 l 651 522 l 569 522 l 358 -6 l 347 -6 l 125 522 l 35 522 l 35 544 "},"w":{"ha":901,"x_min":38,"x_max":876,"o":"m 38 544 l 340 544 l 340 522 l 249 522 l 375 175 l 494 544 l 504 544 l 650 174 l 758 522 l 643 522 l 643 544 l 876 544 l 876 522 l 781 522 l 613 -15 l 601 -15 l 456 353 l 335 -15 l 322 -15 l 128 522 l 38 522 l 38 544 "},"x":{"ha":699,"x_min":42,"x_max":675,"o":"m 42 544 l 335 544 l 335 522 l 244 522 l 376 332 l 517 522 l 428 522 l 428 544 l 636 544 l 636 522 l 547 522 l 390 313 l 592 22 l 675 22 l 675 0 l 361 0 l 361 22 l 465 22 l 322 229 l 168 22 l 271 22 l 271 0 l 47 0 l 47 22 l 140 22 l 308 250 l 119 522 l 42 522 l 42 544 "},"y":{"ha":703,"x_min":42,"x_max":683,"o":"m 42 544 l 368 544 l 368 522 l 261 522 l 422 144 l 567 522 l 464 522 l 464 544 l 683 544 l 683 522 l 592 522 l 306 -225 q 240 -326 282 -289 q 150 -362 199 -362 q 97 -347 114 -362 q 79 -304 79 -331 q 92 -268 79 -283 q 128 -253 104 -253 q 161 -262 149 -253 q 182 -289 174 -271 q 190 -303 186 -297 q 204 -308 193 -308 q 245 -286 224 -308 q 285 -218 267 -264 l 365 -6 l 133 522 l 42 522 l 42 544 "},"z":{"ha":558,"x_min":72,"x_max":517,"o":"m 503 544 l 503 511 l 197 22 l 360 22 q 460 60 426 22 q 500 182 494 99 l 517 182 l 517 0 l 72 0 l 72 31 l 382 522 l 242 522 q 195 516 217 522 q 157 493 174 510 q 129 449 140 476 q 114 378 118 421 l 97 378 l 97 544 l 503 544 "},"{":{"ha":381,"x_min":25,"x_max":364,"o":"m 135 336 q 124 384 135 365 q 97 415 114 403 q 61 432 81 426 q 25 440 42 438 q 61 450 42 443 q 97 469 81 457 q 124 499 113 481 q 135 544 135 517 l 135 835 q 176 949 135 914 q 279 985 217 985 q 344 983 324 985 q 364 972 364 982 q 350 963 364 964 q 308 961 336 961 q 270 955 288 961 q 239 933 253 949 q 217 889 225 917 q 210 819 210 861 l 210 542 q 199 492 210 510 q 171 463 188 474 q 133 449 154 453 q 90 440 111 444 q 133 431 111 436 q 171 416 154 426 q 199 388 188 406 q 210 340 210 369 l 210 90 q 217 19 210 47 q 239 -24 225 -8 q 270 -47 253 -40 q 308 -53 288 -53 q 350 -54 336 -53 q 364 -64 364 -56 q 344 -75 364 -74 q 279 -76 324 -76 q 176 -40 217 -76 q 135 75 135 -4 l 135 336 "},"|":{"ha":160,"x_min":64,"x_max":101,"o":"m 64 971 l 101 971 l 101 -71 l 64 -71 l 64 971 "},"}":{"ha":388,"x_min":25,"x_max":364,"o":"m 110 -76 q 45 -75 65 -76 q 25 -64 25 -74 q 39 -54 25 -56 q 81 -53 53 -53 q 119 -47 101 -53 q 150 -24 136 -40 q 172 19 164 -8 q 179 90 179 47 l 179 340 q 190 388 179 369 q 218 416 201 406 q 256 431 235 426 q 299 440 278 436 q 256 449 278 444 q 218 463 235 453 q 190 492 201 474 q 179 542 179 510 l 179 819 q 172 889 179 861 q 150 933 164 917 q 119 955 136 949 q 81 961 101 961 q 39 963 53 961 q 25 972 25 964 q 45 983 25 982 q 110 985 65 985 q 213 949 172 985 q 254 835 254 914 l 254 544 q 265 499 254 517 q 292 469 276 481 q 328 450 308 457 q 364 440 347 443 q 328 432 347 438 q 292 415 308 426 q 265 384 275 403 q 254 336 254 365 l 254 75 q 213 -40 254 -4 q 110 -76 172 -76 "},"~":{"ha":590,"x_min":53,"x_max":550,"o":"m 354 544 q 407 523 381 533 q 458 513 433 513 q 503 524 493 513 q 515 556 514 536 q 535 578 518 578 q 550 554 550 578 q 544 520 550 539 q 520 485 538 501 q 473 456 503 468 q 397 444 443 444 q 326 451 360 444 q 251 476 293 458 q 199 501 222 489 q 153 514 176 514 q 107 499 125 514 q 86 458 89 483 q 69 438 83 438 q 53 464 53 438 q 62 501 53 481 q 90 538 71 521 q 138 567 108 556 q 208 579 167 579 q 281 569 244 579 q 354 544 318 560 "},"":{"ha":326,"x_min":93,"x_max":281,"o":"m 281 128 q 272 74 281 103 q 244 17 263 44 q 196 -35 225 -11 q 125 -75 167 -58 q 117 -78 119 -78 q 110 -74 110 -78 q 117 -67 110 -71 q 176 -31 151 -53 q 217 14 201 -10 q 241 60 233 38 q 249 101 249 83 q 236 135 249 135 q 232 122 232 135 q 211 86 229 99 q 171 74 193 74 q 115 92 138 74 q 93 146 93 111 q 118 203 93 182 q 183 225 143 225 q 252 198 224 225 q 281 128 281 171 "},"":{"ha":872,"x_min":107,"x_max":753,"o":"m 753 646 l 753 0 l 107 0 l 107 646 l 753 646 "},"":{"ha":629,"x_min":113,"x_max":550,"o":"m 550 128 q 541 74 550 103 q 513 17 532 44 q 465 -35 494 -11 q 394 -75 436 -58 q 386 -78 389 -78 q 379 -74 379 -78 q 386 -67 379 -71 q 446 -31 421 -53 q 487 14 471 -10 q 510 60 503 38 q 518 101 518 83 q 506 135 518 135 q 501 122 501 135 q 481 86 499 99 q 440 74 463 74 q 385 92 407 74 q 363 146 363 111 q 388 203 363 182 q 453 225 413 225 q 522 198 493 225 q 550 128 550 171 m 300 128 q 291 74 300 103 q 263 17 282 44 q 215 -35 244 -11 q 144 -75 186 -58 q 136 -78 139 -78 q 129 -74 129 -78 q 136 -67 129 -71 q 196 -31 171 -53 q 237 14 221 -10 q 260 60 253 38 q 268 101 268 83 q 256 135 268 135 q 251 122 251 135 q 231 86 249 99 q 190 74 213 74 q 135 92 157 74 q 113 146 113 111 q 138 203 113 182 q 203 225 163 225 q 272 198 243 225 q 300 128 300 171 "},"":{"ha":1115,"x_min":154,"x_max":965,"o":"m 304 69 q 283 16 304 38 q 229 -6 261 -6 q 176 16 197 -6 q 154 69 154 38 q 176 123 154 101 q 229 144 197 144 q 283 123 261 144 q 304 69 304 101 m 635 69 q 613 16 635 38 q 560 -6 592 -6 q 506 16 528 -6 q 485 69 485 38 q 506 123 485 101 q 560 144 528 144 q 613 123 592 144 q 635 69 635 101 m 965 69 q 944 16 965 38 q 890 -6 922 -6 q 837 16 858 -6 q 815 69 815 38 q 837 123 815 101 q 890 144 858 144 q 944 123 922 144 q 965 69 965 101 "},"":{"ha":365,"x_min":78,"x_max":293,"o":"m 203 656 l 293 656 l 293 619 l 203 619 l 203 96 l 167 96 l 167 619 l 78 619 l 78 656 l 167 656 l 167 756 q 163 780 167 768 q 154 803 158 792 q 146 825 150 814 q 142 850 142 836 q 144 872 142 861 q 151 897 147 883 q 160 928 157 914 q 168 964 164 942 q 185 997 174 997 q 201 964 194 997 q 209 928 206 942 q 218 897 213 914 q 225 872 222 883 q 228 850 228 861 q 224 825 228 836 q 215 803 219 814 q 207 780 211 792 q 203 756 203 768 l 203 656 "},"":{"ha":365,"x_min":76,"x_max":292,"o":"m 201 292 l 292 292 l 292 256 l 201 256 l 201 156 q 206 131 201 143 q 214 108 210 119 q 222 86 218 97 q 226 61 226 75 q 224 39 226 50 q 217 14 221 28 q 208 -17 211 -3 q 200 -53 204 -31 q 183 -86 193 -86 q 167 -53 172 -86 q 159 -17 163 -31 q 150 14 156 -3 q 143 39 146 28 q 140 61 140 50 q 144 86 140 75 q 153 108 149 97 q 161 131 157 119 q 165 156 165 143 l 165 256 l 76 256 l 76 292 l 165 292 l 165 619 l 76 619 l 76 656 l 165 656 l 165 756 q 161 780 165 768 q 153 803 157 792 q 144 825 149 814 q 140 850 140 836 q 143 872 140 861 q 150 897 146 883 q 159 928 156 914 q 167 964 163 942 q 183 997 172 997 q 200 964 193 997 q 208 928 204 942 q 217 897 211 914 q 224 872 221 883 q 226 850 226 861 q 222 825 226 836 q 214 803 218 814 q 206 780 210 792 q 201 756 201 768 l 201 656 l 292 656 l 292 619 l 201 619 l 201 292 "},"":{"ha":456,"x_min":46,"x_max":421,"o":"m 421 693 l 413 689 l 233 782 l 56 689 l 46 693 l 229 878 l 238 878 l 421 693 "},"":{"ha":1535,"x_min":47,"x_max":1472,"o":"m 231 -6 l 182 -6 l 800 949 l 849 949 l 231 -6 m 47 682 q 61 780 47 732 q 103 865 75 828 q 174 926 132 903 q 272 949 215 949 q 371 926 329 949 q 440 865 413 903 q 482 780 468 828 q 496 682 496 732 q 483 582 496 631 q 442 495 469 533 q 374 434 415 457 q 278 411 333 411 q 176 435 219 411 q 105 497 133 458 q 62 583 76 535 q 47 682 47 632 m 164 699 l 164 665 q 166 575 164 618 q 178 500 168 532 q 213 449 189 468 q 278 429 236 429 q 335 447 314 429 q 365 497 356 465 q 377 572 375 529 q 379 665 379 615 l 379 699 q 377 787 379 744 q 365 861 375 829 q 333 912 354 893 q 272 931 311 931 q 210 911 232 931 q 178 860 189 892 q 166 786 168 828 q 164 699 164 744 m 538 256 q 551 353 538 306 q 594 439 565 401 q 664 499 622 476 q 763 522 706 522 q 861 499 819 522 q 931 439 903 476 q 972 353 958 401 q 986 256 986 306 q 973 156 986 204 q 933 69 960 107 q 865 8 906 31 q 768 -15 824 -15 q 667 8 710 -15 q 595 70 624 32 q 552 157 567 108 q 538 256 538 206 m 654 272 l 654 239 q 656 149 654 192 q 669 74 658 106 q 703 22 679 42 q 768 3 726 3 q 825 21 804 3 q 856 71 846 39 q 867 146 865 103 q 869 239 869 189 l 869 272 q 867 360 869 318 q 855 435 865 403 q 823 485 844 467 q 763 504 801 504 q 701 485 722 504 q 669 433 679 465 q 656 360 658 401 q 654 272 654 318 m 1024 256 q 1038 353 1024 306 q 1080 439 1051 401 q 1150 499 1108 476 q 1249 522 1192 522 q 1347 499 1306 522 q 1417 439 1389 476 q 1458 353 1444 401 q 1472 256 1472 306 q 1459 156 1472 204 q 1419 69 1446 107 q 1351 8 1392 31 q 1254 -15 1310 -15 q 1153 8 1196 -15 q 1081 70 1110 32 q 1038 157 1053 108 q 1024 256 1024 206 m 1140 272 l 1140 239 q 1142 149 1140 192 q 1155 74 1144 106 q 1189 22 1165 42 q 1254 3 1213 3 q 1311 21 1290 3 q 1342 71 1332 39 q 1353 146 1351 103 q 1356 239 1356 189 l 1356 272 q 1353 360 1356 318 q 1341 435 1351 403 q 1309 485 1331 467 q 1249 504 1288 504 q 1187 485 1208 504 q 1155 433 1165 465 q 1142 360 1144 401 q 1140 272 1140 318 "},"":{"ha":753,"x_min":78,"x_max":700,"o":"m 390 971 l 382 971 l 200 1156 l 208 1161 l 386 1067 l 565 1161 l 575 1156 l 390 971 m 626 943 q 642 954 635 954 q 650 940 650 954 l 650 693 q 640 679 650 679 q 628 693 629 679 q 605 779 622 738 q 558 853 588 821 q 486 904 529 885 q 386 924 443 924 q 312 913 349 924 q 247 882 275 903 q 200 828 218 861 q 182 753 182 796 q 204 672 182 707 q 269 621 226 638 q 340 595 308 606 q 401 576 372 585 q 458 561 431 568 q 518 544 486 554 q 656 452 613 517 q 700 294 700 388 q 676 167 700 226 q 610 65 651 108 q 511 -2 568 22 q 388 -26 454 -26 q 317 -17 351 -26 q 253 6 283 -8 q 199 36 224 19 q 158 68 175 53 l 108 -4 q 90 -18 99 -18 q 78 0 78 -18 l 78 249 q 88 268 78 268 q 103 250 99 268 q 147 144 118 192 q 214 65 175 97 q 299 16 253 33 q 394 -1 344 -1 q 479 14 438 -1 q 553 57 521 29 q 604 126 585 85 q 624 217 624 167 q 607 297 624 257 q 543 358 590 336 q 477 387 506 376 q 421 406 449 397 q 361 425 393 415 q 283 450 329 435 q 142 543 188 482 q 97 678 97 604 q 117 781 97 732 q 174 867 136 829 q 265 926 211 904 q 386 949 318 949 q 445 945 419 949 q 494 935 471 942 q 539 917 517 928 q 586 892 561 906 l 626 943 "},"":{"ha":365,"x_min":49,"x_max":308,"o":"m 283 590 l 308 590 l 139 374 l 308 157 l 283 157 l 49 374 l 283 590 "},"":{"ha":1344,"x_min":56,"x_max":1307,"o":"m 732 933 l 1233 933 q 1268 900 1268 933 l 1268 689 q 1258 671 1268 671 q 1247 690 1247 671 q 1237 759 1246 721 q 1208 831 1228 797 q 1157 888 1189 865 q 1078 911 1125 911 l 867 911 l 867 503 l 976 503 q 1025 512 1007 503 q 1053 538 1043 521 q 1069 578 1064 554 q 1081 631 1075 601 q 1092 650 1085 650 q 1100 633 1100 650 l 1100 351 q 1092 333 1100 333 q 1081 353 1085 333 q 1069 406 1075 382 q 1053 446 1064 429 q 1025 472 1043 463 q 976 481 1007 481 l 867 481 l 867 22 l 1090 22 q 1171 39 1139 22 q 1224 87 1203 56 q 1257 161 1244 118 q 1281 257 1269 204 q 1296 286 1286 286 q 1307 253 1307 286 l 1307 44 q 1299 10 1307 21 q 1267 0 1290 0 l 732 0 l 732 68 q 617 -1 679 25 q 486 -26 556 -26 q 319 15 397 -26 q 182 124 240 56 q 90 280 124 192 q 56 463 56 368 q 90 645 56 557 q 182 801 124 733 q 319 908 240 868 q 486 949 397 949 q 617 924 556 949 q 732 856 679 900 l 732 933 m 486 924 q 375 903 424 924 q 294 835 326 882 q 244 715 261 789 q 226 532 226 640 l 226 393 q 292 95 226 192 q 488 -1 358 -1 q 680 95 614 -1 q 746 393 746 192 l 746 532 q 728 718 746 643 q 678 839 711 793 q 597 904 646 885 q 486 924 549 924 "},"":{"ha":351,"x_min":75,"x_max":263,"o":"m 75 783 q 83 838 75 808 q 110 894 92 867 q 159 946 129 922 q 231 986 189 969 q 239 989 236 989 q 246 985 246 989 q 239 978 246 981 q 179 942 204 963 q 138 897 154 921 q 115 851 122 874 q 107 810 107 828 q 119 776 107 776 q 124 789 124 776 q 144 825 126 813 q 185 838 163 838 q 240 819 218 838 q 263 765 263 800 q 238 708 263 729 q 172 686 213 686 q 103 713 132 686 q 75 783 75 740 "},"":{"ha":329,"x_min":93,"x_max":281,"o":"m 281 875 q 272 821 281 850 q 244 764 263 792 q 196 713 225 736 q 125 672 167 689 q 117 669 119 669 q 110 674 110 669 q 117 681 110 676 q 176 716 151 694 q 217 761 201 738 q 241 808 233 785 q 249 849 249 831 q 236 882 249 882 q 232 869 232 882 q 211 833 229 846 q 171 821 193 821 q 115 840 138 821 q 93 893 93 858 q 118 951 93 929 q 183 972 143 972 q 252 945 224 972 q 281 875 281 918 "},"":{"ha":619,"x_min":86,"x_max":524,"o":"m 86 782 q 94 836 86 807 q 122 893 103 865 q 170 944 140 921 q 242 985 200 968 q 250 988 247 988 q 257 983 257 988 q 250 976 257 979 q 190 940 215 961 q 149 896 165 919 q 126 849 133 872 q 118 808 118 826 q 131 775 118 775 q 135 788 135 775 q 156 824 138 811 q 196 836 174 836 q 251 817 229 836 q 274 764 274 799 q 249 706 274 728 q 183 685 224 685 q 115 712 143 685 q 86 782 86 739 m 336 782 q 344 836 336 807 q 372 893 353 865 q 420 944 390 921 q 492 985 450 968 q 500 988 497 988 q 507 983 507 988 q 500 976 507 979 q 440 940 465 961 q 399 896 415 919 q 376 849 383 872 q 368 808 368 826 q 381 775 368 775 q 385 788 385 775 q 406 824 388 811 q 446 836 424 836 q 501 817 479 836 q 524 764 524 799 q 499 706 524 728 q 433 685 474 685 q 365 712 393 685 q 336 782 336 739 "},"":{"ha":629,"x_min":110,"x_max":547,"o":"m 547 875 q 538 821 547 850 q 510 764 529 792 q 463 713 492 736 q 392 672 433 689 q 383 669 386 669 q 376 674 376 669 q 383 681 376 676 q 443 716 418 694 q 484 761 468 738 q 508 808 500 785 q 515 849 515 831 q 503 882 515 882 q 499 869 499 882 q 478 833 496 846 q 438 821 460 821 q 382 840 404 821 q 360 893 360 858 q 385 951 360 929 q 450 972 410 972 q 519 945 490 972 q 547 875 547 918 m 297 875 q 288 821 297 850 q 260 764 279 792 q 213 713 242 736 q 142 672 183 689 q 133 669 136 669 q 126 674 126 669 q 133 681 126 676 q 193 716 168 694 q 234 761 218 738 q 258 808 250 785 q 265 849 265 831 q 253 882 265 882 q 249 869 249 882 q 228 833 246 846 q 188 821 210 821 q 132 840 154 821 q 110 893 110 858 q 135 951 110 929 q 200 972 160 972 q 269 945 240 972 q 297 875 297 918 "},"":{"ha":635,"x_min":90,"x_max":540,"o":"m 540 328 q 522 241 540 282 q 474 169 504 200 q 402 121 443 139 q 315 103 361 103 q 228 121 269 103 q 157 169 188 139 q 108 241 126 200 q 90 328 90 282 q 108 415 90 374 q 157 486 126 456 q 228 535 188 517 q 315 553 269 553 q 402 535 361 553 q 474 486 443 517 q 522 415 504 456 q 540 328 540 374 "},"":{"ha":500,"x_min":64,"x_max":447,"o":"m 447 414 l 447 339 l 64 339 l 64 414 l 447 414 "},"":{"ha":964,"x_min":72,"x_max":894,"o":"m 894 414 l 894 339 l 72 339 l 72 414 l 894 414 "},"":{"ha":626,"x_min":108,"x_max":556,"o":"m 379 810 q 426 791 403 800 q 474 782 450 782 q 515 794 506 782 q 525 821 524 806 q 542 840 528 840 q 556 819 556 840 q 550 790 556 807 q 529 758 544 774 q 488 732 514 743 q 418 721 461 721 q 355 727 385 721 q 288 749 325 733 q 240 772 260 760 q 199 783 219 783 q 157 769 174 783 q 138 733 140 756 q 124 714 138 714 q 108 738 108 714 q 117 769 108 751 q 142 803 125 788 q 185 831 158 819 q 249 842 211 842 q 314 833 281 842 q 379 810 347 824 "},"":{"ha":688,"x_min":54,"x_max":624,"o":"m 192 682 l 231 682 l 231 671 l 111 671 l 111 682 l 147 682 l 147 921 l 111 921 q 65 878 71 921 l 54 878 l 60 933 l 281 933 l 285 878 l 274 878 q 228 921 268 921 l 192 921 l 192 682 m 326 682 l 365 682 l 365 921 l 326 921 l 326 933 l 401 933 l 476 735 l 542 933 l 624 933 l 624 921 l 588 921 l 588 682 l 624 682 l 624 671 l 507 671 l 507 682 l 544 682 l 544 904 l 469 671 l 461 671 l 379 889 l 379 682 l 418 682 l 418 671 l 326 671 l 326 682 "},"":{"ha":494,"x_min":64,"x_max":457,"o":"m 394 557 q 404 564 401 564 q 408 554 408 564 l 408 406 q 403 397 408 397 q 394 406 396 397 q 380 453 390 429 q 352 497 369 478 q 309 529 335 517 q 250 542 283 542 q 163 513 197 542 q 128 447 128 483 q 140 406 128 421 q 179 382 151 392 q 215 372 193 378 q 258 361 236 367 q 299 351 279 356 q 331 342 318 346 q 431 269 404 317 q 457 169 457 222 q 444 95 457 129 q 408 35 432 61 q 349 -5 383 10 q 268 -19 314 -19 q 174 -3 213 -19 q 111 39 136 13 l 82 -4 q 72 -11 78 -11 q 64 0 64 -11 l 64 149 q 72 160 64 160 q 83 147 79 160 q 151 38 103 74 q 264 3 200 3 q 311 9 286 3 q 358 28 336 15 q 395 63 381 42 q 410 114 410 85 q 399 157 410 136 q 361 193 389 178 q 323 210 344 203 q 278 224 301 218 q 233 235 256 231 q 193 244 211 240 q 103 297 133 258 q 74 388 74 336 q 85 453 74 421 q 120 510 97 485 q 178 549 143 535 q 257 564 213 564 q 363 525 319 564 l 394 557 m 253 665 l 69 850 l 79 854 l 257 761 l 436 854 l 444 850 l 261 665 l 253 665 "},"":{"ha":365,"x_min":60,"x_max":318,"o":"m 60 157 l 229 374 l 60 590 l 83 590 l 318 374 l 83 157 l 60 157 "},"":{"ha":983,"x_min":40,"x_max":956,"o":"m 707 564 q 819 537 774 564 q 893 474 865 510 q 934 399 921 438 q 949 338 947 360 q 926 319 951 319 l 592 319 l 592 178 q 626 44 592 86 q 715 3 660 3 q 797 17 761 3 q 858 53 832 31 q 903 104 885 75 q 935 163 922 133 q 947 176 940 176 q 956 167 956 176 q 951 147 956 157 q 918 83 939 114 q 867 30 897 53 q 798 -6 836 7 q 713 -19 760 -19 q 600 8 650 -19 q 514 79 550 35 q 428 9 478 38 q 315 -19 378 -19 q 202 9 253 -19 q 115 81 151 38 q 60 176 79 124 q 40 274 40 228 q 60 371 40 319 q 115 465 79 422 q 202 536 151 508 q 315 564 253 564 q 428 535 378 564 q 515 463 479 507 q 600 535 551 507 q 707 564 649 564 m 185 303 l 185 243 q 190 135 185 181 q 209 61 194 90 q 249 17 224 32 q 315 3 274 3 q 382 17 357 3 q 421 61 407 32 q 440 135 435 90 q 444 243 444 181 l 444 303 q 440 406 444 361 q 422 480 436 450 q 383 526 408 510 q 315 542 358 542 q 248 526 274 542 q 208 481 222 511 q 190 406 194 450 q 185 303 185 361 m 592 342 l 797 342 q 818 407 818 342 q 814 456 818 432 q 797 499 810 479 q 763 530 785 518 q 708 542 742 542 q 667 536 688 542 q 629 515 646 531 q 602 472 613 500 q 592 397 592 443 l 592 342 "},"":{"ha":919,"x_min":44,"x_max":901,"o":"m 458 1085 q 440 1038 458 1057 q 393 1019 421 1019 q 347 1038 365 1019 q 328 1085 328 1057 q 347 1131 328 1113 q 393 1150 365 1150 q 440 1131 421 1150 q 458 1085 458 1113 m 669 1085 q 651 1038 669 1057 q 604 1019 632 1019 q 558 1038 576 1019 q 539 1085 539 1057 q 558 1131 539 1113 q 604 1150 576 1150 q 651 1131 632 1150 q 669 1085 669 1113 m 432 933 l 432 911 l 304 911 l 538 519 l 753 911 l 618 911 l 618 933 l 901 933 l 901 911 l 789 911 l 560 494 l 560 22 l 693 22 l 693 0 l 292 0 l 292 22 l 425 22 l 425 458 l 156 911 l 44 911 l 44 933 l 432 933 "},"":{"ha":374,"x_min":114,"x_max":275,"o":"m 186 499 l 203 499 q 213 353 207 438 q 233 183 218 268 q 244 133 238 163 q 258 68 251 103 q 270 -3 265 33 q 275 -74 275 -40 q 267 -136 275 -111 q 249 -175 260 -161 q 224 -194 238 -189 q 196 -200 210 -200 q 166 -194 181 -200 q 140 -175 151 -189 q 122 -136 129 -161 q 114 -74 114 -111 q 119 -3 114 -40 q 131 68 124 33 q 144 133 138 103 q 156 183 151 163 q 176 353 171 268 q 186 499 182 438 m 272 661 q 251 608 272 629 q 197 586 229 586 q 144 608 165 586 q 122 661 122 629 q 144 715 122 693 q 197 736 165 736 q 251 715 229 736 q 272 661 272 693 "},"":{"ha":478,"x_min":53,"x_max":440,"o":"m 256 613 l 256 667 l 278 667 l 278 613 q 329 606 304 613 q 373 586 354 599 q 403 558 392 574 q 415 525 415 542 q 402 491 415 504 q 369 478 389 478 q 338 490 350 478 q 325 522 325 503 q 339 561 325 544 q 340 567 340 563 q 325 586 340 575 q 278 597 310 597 l 278 192 q 373 227 333 193 q 422 308 413 261 q 432 317 424 317 q 440 307 440 317 q 439 297 440 301 q 425 262 435 282 q 397 223 415 242 q 349 190 378 204 q 278 172 319 175 l 278 101 l 256 101 l 256 174 q 178 194 215 176 q 114 240 142 211 q 69 307 86 268 q 53 392 53 346 q 106 540 53 482 q 256 613 160 599 m 256 597 q 210 582 228 593 q 181 551 192 571 q 167 499 171 531 q 163 422 163 468 l 163 361 q 180 238 163 278 q 256 192 197 199 l 256 597 "},"":{"ha":754,"x_min":25,"x_max":715,"o":"m 458 951 q 535 940 497 951 q 601 908 572 929 q 648 858 631 888 q 665 794 665 829 q 644 716 665 750 q 575 682 624 682 q 518 700 542 682 q 494 751 494 718 q 502 790 494 775 q 522 813 510 804 q 549 824 535 821 q 579 828 564 828 q 597 831 589 828 q 606 844 606 833 q 592 875 606 860 q 558 902 579 890 q 511 922 538 914 q 458 929 485 929 q 394 920 422 929 q 344 890 365 911 q 313 831 324 868 q 301 736 301 793 l 301 500 l 411 500 l 411 475 l 301 475 l 301 239 q 353 208 324 225 q 414 174 382 190 q 480 148 446 158 q 546 138 514 138 q 635 175 603 138 q 694 274 668 213 q 706 282 699 282 q 715 268 715 282 q 714 258 715 263 q 688 170 704 218 q 644 81 671 122 q 580 13 618 40 q 489 -15 542 -15 q 376 9 428 -15 q 292 75 325 33 q 244 18 275 43 q 144 -7 214 -7 q 92 3 115 -7 q 55 29 69 13 q 33 67 40 46 q 25 111 25 89 q 42 176 25 149 q 83 223 58 204 q 138 251 108 242 q 194 260 168 260 q 254 251 221 260 l 181 475 l 53 475 l 53 500 l 171 500 q 149 567 158 539 q 134 617 140 594 q 125 663 128 640 q 122 714 122 685 q 153 829 122 783 q 231 902 183 875 q 339 940 279 929 q 458 951 399 951 m 144 18 q 228 41 201 18 q 268 94 256 64 q 197 165 236 135 q 119 194 157 194 q 97 190 110 194 q 74 174 85 185 q 57 149 64 164 q 50 111 50 133 q 75 47 50 76 q 144 18 100 18 "},"":{"ha":908,"x_min":33,"x_max":890,"o":"m 549 463 l 683 463 l 683 440 l 549 440 l 549 369 l 683 369 l 683 347 l 549 347 l 549 22 l 682 22 l 682 0 l 281 0 l 281 22 l 414 22 l 414 347 l 278 347 l 278 369 l 414 369 l 414 440 l 278 440 l 278 463 l 411 463 l 144 911 l 33 911 l 33 933 l 421 933 l 421 911 l 293 911 l 526 519 l 742 911 l 607 911 l 607 933 l 890 933 l 890 911 l 778 911 l 549 494 l 549 463 "},"":{"ha":160,"x_min":64,"x_max":101,"o":"m 101 375 l 101 0 l 64 0 l 64 375 l 101 375 m 64 524 l 64 936 l 101 936 l 101 524 l 64 524 "},"":{"ha":522,"x_min":54,"x_max":489,"o":"m 460 846 q 447 807 460 819 q 414 794 433 794 q 378 806 393 794 q 363 840 363 818 q 374 875 363 860 q 410 892 386 890 q 411 893 411 892 q 401 904 411 896 q 372 921 392 913 q 325 936 353 929 q 263 943 297 943 q 208 935 235 943 q 161 911 182 926 q 127 875 140 896 q 114 828 114 854 q 152 754 114 779 q 256 719 190 729 q 364 688 319 710 q 436 637 408 667 q 476 568 464 607 q 489 485 489 529 q 460 371 489 414 q 378 308 431 328 q 429 276 408 296 q 463 233 450 257 q 480 183 475 210 q 485 131 485 157 q 424 -37 485 26 q 256 -100 363 -100 q 180 -87 214 -100 q 122 -53 146 -74 q 84 -6 97 -32 q 71 49 71 21 q 84 94 71 75 q 122 113 97 113 q 156 100 142 113 q 169 63 169 88 q 156 28 169 42 q 118 14 142 14 q 106 7 106 14 q 117 -14 106 0 q 147 -42 128 -28 q 194 -67 167 -57 q 256 -78 222 -78 q 378 -39 335 -78 q 422 58 422 0 q 383 144 422 107 q 257 196 344 182 q 104 267 153 211 q 56 403 56 322 q 94 525 56 479 q 182 582 132 571 q 85 644 115 600 q 54 753 54 689 q 69 833 54 794 q 110 900 83 871 q 176 947 138 929 q 263 965 214 965 q 356 953 318 965 q 417 924 394 942 q 450 885 440 906 q 460 846 460 864 m 450 435 q 425 487 450 464 q 364 527 400 510 q 288 556 328 544 q 219 572 249 568 q 145 539 175 563 q 115 468 115 515 q 126 422 115 443 q 165 382 138 400 q 237 348 192 364 q 350 318 282 332 q 421 365 392 333 q 450 435 450 396 "},"":{"ha":582,"x_min":128,"x_max":469,"o":"m 258 801 q 240 755 258 774 q 193 736 221 736 q 147 755 165 736 q 128 801 128 774 q 147 848 128 829 q 193 867 165 867 q 240 848 221 867 q 258 801 258 829 m 469 801 q 451 755 469 774 q 404 736 432 736 q 358 755 376 736 q 339 801 339 774 q 358 848 339 829 q 404 867 376 867 q 451 848 432 867 q 469 801 469 829 "},"":{"ha":858,"x_min":56,"x_max":825,"o":"m 825 517 q 794 367 825 438 q 712 245 764 297 q 590 163 660 193 q 440 132 519 132 q 291 163 361 132 q 169 245 221 193 q 86 367 117 297 q 56 517 56 438 q 86 666 56 596 q 169 788 117 736 q 291 871 221 840 q 440 901 361 901 q 590 871 519 901 q 712 788 660 840 q 794 666 764 736 q 825 517 825 596 m 88 518 q 115 380 88 444 q 191 267 143 315 q 303 192 239 219 q 442 164 368 164 q 580 192 515 164 q 692 267 644 219 q 768 380 740 315 q 796 518 796 444 q 768 656 796 592 q 692 769 740 721 q 580 844 644 817 q 442 872 515 872 q 303 844 368 872 q 191 769 239 817 q 115 656 143 721 q 88 518 88 592 m 568 463 q 571 457 571 463 l 571 346 q 567 342 571 342 q 563 344 565 342 l 531 378 q 490 348 514 360 q 438 336 467 336 q 375 352 406 336 q 320 395 344 368 q 281 458 296 422 q 265 536 265 494 q 278 608 265 572 q 315 672 292 643 q 371 717 339 700 q 440 735 403 735 q 489 726 467 735 q 529 703 511 718 l 551 726 q 560 731 554 731 q 564 724 564 731 l 564 629 q 560 622 564 622 q 554 628 557 622 q 513 696 540 671 q 440 721 485 721 q 336 567 336 721 l 336 504 q 438 350 336 350 q 510 379 481 350 q 560 456 539 408 q 568 463 561 463 "},"":{"ha":478,"x_min":65,"x_max":429,"o":"m 65 454 l 429 454 l 429 411 l 65 411 l 65 454 m 163 849 q 201 863 178 858 q 251 868 225 868 q 333 849 306 868 q 360 793 360 829 l 360 592 q 363 554 360 568 q 382 540 367 540 q 404 549 394 540 q 421 571 414 557 q 426 578 424 578 q 429 574 429 578 q 425 559 429 568 q 412 541 421 550 q 388 525 403 532 q 353 518 374 518 q 306 533 319 518 q 290 565 293 547 q 256 534 279 550 q 194 518 232 518 q 131 535 158 518 q 104 593 104 553 q 118 642 104 621 q 157 679 132 664 q 215 703 182 694 q 288 711 249 711 l 288 808 q 272 845 288 836 q 232 854 257 854 q 195 849 213 854 q 178 839 178 844 q 181 835 178 836 q 188 829 183 833 q 197 804 197 818 q 189 783 197 792 q 165 775 181 775 q 144 785 151 775 q 136 807 136 794 q 163 849 136 831 m 288 703 q 243 697 264 701 q 206 684 222 693 q 179 658 189 675 q 169 614 169 640 q 183 560 169 581 q 222 540 197 540 q 242 545 231 540 q 264 557 254 550 q 281 572 274 564 q 288 589 288 581 l 288 703 "},"":{"ha":590,"x_min":42,"x_max":503,"o":"m 276 590 l 300 590 l 132 374 l 300 157 l 276 157 l 42 374 l 276 590 m 479 590 l 503 590 l 335 374 l 503 157 l 479 157 l 244 374 l 479 590 "},"":{"ha":522,"x_min":61,"x_max":465,"o":"m 61 500 l 465 500 l 465 471 l 61 471 l 61 500 m 317 969 l 317 571 l 379 571 l 379 557 l 190 557 l 190 571 l 253 571 l 253 953 l 188 946 l 188 958 l 311 974 l 317 969 m 285 218 q 281 217 281 218 q 281 216 281 217 q 285 215 282 215 q 320 210 299 215 q 361 191 342 204 q 394 157 381 178 q 408 106 408 136 q 397 55 408 76 q 365 19 385 33 q 322 -3 346 4 q 275 -10 299 -10 q 228 -3 251 -10 q 185 19 204 4 q 155 54 167 33 q 143 104 143 75 q 156 156 143 135 q 189 191 169 178 q 229 210 208 204 q 265 215 250 215 q 269 216 268 215 q 271 217 271 217 q 265 218 271 218 q 188 249 221 224 q 156 321 156 274 q 191 390 156 364 q 275 415 226 415 q 358 390 321 415 q 396 319 396 364 q 363 252 396 279 q 285 218 331 225 m 214 321 q 222 274 214 293 q 241 244 231 256 q 262 228 251 233 q 275 224 272 224 q 288 228 278 224 q 308 244 297 233 q 326 274 318 256 q 333 321 333 293 q 275 401 333 401 q 230 380 246 401 q 214 321 214 358 m 201 106 q 219 31 201 57 q 275 4 238 4 q 330 31 313 4 q 347 107 347 58 q 337 156 347 136 q 314 189 326 176 q 290 206 301 201 q 275 211 278 211 q 260 206 272 211 q 235 188 249 200 q 212 155 222 175 q 201 106 201 135 "},"":{"ha":604,"x_min":40,"x_max":551,"o":"m 71 688 q 89 599 71 640 q 138 528 107 558 q 209 480 168 497 q 297 463 250 463 q 384 480 343 463 q 456 528 425 497 q 504 599 486 558 q 522 688 522 640 q 504 776 522 735 q 456 847 486 817 q 384 895 425 878 q 297 913 343 913 q 209 895 250 913 q 138 847 168 878 q 89 776 107 817 q 71 688 71 735 m 551 688 q 531 588 551 635 q 476 507 511 542 q 395 452 442 472 q 296 432 349 432 q 197 452 243 432 q 115 507 150 472 q 60 588 81 542 q 40 688 40 635 q 60 787 40 740 q 115 868 81 833 q 197 923 150 903 q 296 943 243 943 q 395 923 349 943 q 476 868 442 903 q 531 787 511 833 q 551 688 551 740 m 399 557 q 417 546 403 546 q 436 551 429 546 l 439 551 l 440 551 q 439 549 440 550 q 421 540 435 544 q 392 535 407 535 q 363 544 369 535 q 349 581 350 558 q 346 628 349 604 q 326 678 342 667 q 294 690 310 690 l 260 690 l 260 551 l 297 551 l 297 538 l 178 538 l 178 551 l 217 551 l 217 822 l 178 822 l 178 836 l 303 836 q 369 817 343 836 q 396 763 396 799 q 324 692 396 704 q 369 672 351 685 q 393 624 388 660 q 396 586 396 607 q 399 557 396 565 m 260 704 l 303 704 q 341 715 328 704 q 354 754 354 726 l 354 771 q 303 822 354 822 l 260 822 l 260 704 "},"":{"ha":613,"x_min":150,"x_max":479,"o":"m 150 786 l 479 786 l 479 746 l 150 746 l 150 786 "},"":{"ha":311,"x_min":58,"x_max":267,"o":"m 267 842 q 236 768 267 799 q 163 738 206 738 q 89 768 119 738 q 58 842 58 799 q 89 915 58 885 q 163 946 119 946 q 236 915 206 946 q 267 842 267 885 m 81 842 q 104 783 81 807 q 163 760 128 760 q 221 783 197 760 q 244 842 244 807 q 221 900 244 876 q 163 924 197 924 q 104 900 128 924 q 81 842 81 876 "},"":{"ha":553,"x_min":49,"x_max":499,"o":"m 476 257 l 476 182 l 71 182 l 71 257 l 476 257 m 236 579 l 236 767 l 311 767 l 311 579 l 499 579 l 499 504 l 311 504 l 311 317 l 236 317 l 236 504 l 49 504 l 49 579 l 236 579 "},"":{"ha":486,"x_min":121,"x_max":404,"o":"m 181 899 q 206 888 196 899 q 215 864 215 876 q 201 835 215 844 q 172 825 188 825 q 142 837 153 825 q 131 868 131 849 q 171 938 131 913 q 267 963 211 963 q 313 958 289 963 q 355 941 336 953 q 385 910 374 929 q 397 865 397 892 q 365 786 397 824 q 288 710 332 749 l 156 596 l 331 596 q 372 613 358 596 q 392 661 385 631 q 400 681 396 681 q 404 665 404 681 l 404 660 l 397 544 l 121 544 l 121 576 l 274 721 q 319 783 306 750 q 333 857 333 815 q 250 949 333 949 q 192 936 221 949 q 164 904 164 924 q 169 897 164 897 l 172 897 q 181 899 175 899 "},"":{"ha":451,"x_min":110,"x_max":368,"o":"m 122 908 q 128 929 122 917 q 147 952 133 942 q 181 970 160 963 q 233 978 203 978 q 281 972 258 978 q 323 953 304 965 q 353 922 342 940 q 364 876 364 903 q 353 835 364 853 q 326 804 342 817 q 294 785 311 792 q 267 778 278 779 q 344 740 319 767 q 368 672 368 713 q 358 624 368 647 q 328 585 347 601 q 284 558 310 568 q 228 547 258 547 q 186 552 207 547 q 149 567 165 557 q 121 594 132 578 q 110 631 110 610 q 122 663 110 651 q 150 674 133 674 q 177 664 165 674 q 189 632 189 654 q 178 605 189 613 q 160 594 167 597 q 154 588 154 593 q 158 579 154 583 q 188 565 169 569 q 221 561 206 561 q 283 588 258 561 q 308 671 308 614 q 304 707 308 689 q 290 740 300 725 q 260 763 279 754 q 214 772 242 772 q 192 772 204 772 q 171 771 179 771 q 157 779 157 771 q 171 789 157 789 q 192 788 179 789 q 214 786 204 786 q 276 808 251 786 q 301 882 301 831 q 299 910 301 896 q 290 937 297 925 q 268 956 282 949 q 229 964 254 964 q 194 960 211 964 q 169 950 178 957 q 165 943 165 947 q 171 938 165 939 q 189 926 182 935 q 196 903 196 918 q 185 878 196 888 q 158 869 175 869 q 133 879 143 869 q 122 908 122 889 "},"":{"ha":544,"x_min":254,"x_max":485,"o":"m 365 900 l 485 900 l 264 679 l 254 686 l 365 900 "},"":{"ha":522,"x_min":68,"x_max":474,"o":"m 68 507 l 474 507 l 474 476 l 68 476 l 68 507 m 317 969 l 317 571 l 379 571 l 379 557 l 190 557 l 190 571 l 253 571 l 253 953 l 188 946 l 188 958 l 311 974 l 317 969 m 201 354 q 226 343 217 354 q 236 319 236 332 q 222 290 236 300 q 193 281 208 281 q 163 292 174 281 q 151 324 151 304 q 192 393 151 368 q 288 418 232 418 q 333 413 310 418 q 376 397 357 408 q 406 366 394 385 q 418 321 418 347 q 385 242 418 279 q 308 165 353 204 l 176 51 l 351 51 q 392 69 379 51 q 413 117 406 86 q 421 136 417 136 q 425 121 425 136 l 425 115 l 418 0 l 142 0 l 142 32 l 294 176 q 340 238 326 206 q 354 313 354 271 q 271 401 354 401 q 213 388 242 401 q 185 360 185 375 q 190 353 185 353 l 193 353 q 201 354 196 354 "},"":{"ha":896,"x_min":51,"x_max":836,"o":"m 642 911 l 522 911 l 522 -150 l 449 -150 l 449 428 l 354 428 q 236 443 292 428 q 140 490 181 458 q 75 568 99 521 q 51 681 51 615 q 75 792 51 744 q 140 872 99 840 q 236 918 181 903 q 354 933 292 933 l 836 933 l 836 911 l 717 911 l 717 -150 l 642 -150 l 642 911 "},"":{"ha":311,"x_min":76,"x_max":226,"o":"m 226 447 q 205 394 226 415 q 151 372 183 372 q 98 394 119 372 q 76 447 76 415 q 98 501 76 479 q 151 522 119 522 q 205 501 183 522 q 226 447 226 479 "},"":{"ha":485,"x_min":165,"x_max":353,"o":"m 300 0 l 286 -67 q 306 -76 294 -69 q 328 -92 318 -82 q 346 -117 339 -103 q 353 -149 353 -131 q 328 -204 353 -182 q 261 -226 303 -226 q 209 -209 232 -226 q 171 -168 186 -192 q 165 -153 165 -158 q 169 -147 165 -147 q 186 -158 175 -147 q 212 -178 197 -172 q 242 -185 226 -185 q 279 -173 263 -185 q 296 -136 296 -161 q 281 -96 296 -110 q 250 -75 265 -82 l 267 0 l 300 0 "},"":{"ha":389,"x_min":118,"x_max":310,"o":"m 247 969 l 247 571 l 310 571 l 310 557 l 121 557 l 121 571 l 183 571 l 183 953 l 118 946 l 118 958 l 242 974 l 247 969 "},"":{"ha":440,"x_min":42,"x_max":404,"o":"m 42 454 l 404 454 l 404 411 l 42 411 l 42 454 m 225 515 q 157 532 188 515 q 105 575 126 549 q 72 633 83 601 q 60 692 60 664 q 72 750 60 719 q 105 806 83 781 q 157 849 126 832 q 225 865 188 865 q 293 849 263 865 q 344 806 324 832 q 377 750 365 781 q 389 692 389 719 q 377 633 389 664 q 344 575 365 601 q 293 532 324 549 q 225 515 263 515 m 146 708 l 146 672 q 160 563 146 597 q 225 529 175 529 q 288 563 274 529 q 301 672 301 597 l 301 708 q 289 815 301 779 q 225 851 276 851 q 160 815 175 851 q 146 708 146 779 "},"":{"ha":575,"x_min":92,"x_max":560,"o":"m 301 157 l 471 374 l 301 590 l 325 590 l 560 374 l 325 157 l 301 157 m 92 157 l 260 374 l 92 590 l 115 590 l 350 374 l 115 157 l 92 157 "},"":{"ha":522,"x_min":79,"x_max":483,"o":"m 79 515 l 483 515 l 483 485 l 79 485 l 79 515 m 317 969 l 317 571 l 379 571 l 379 557 l 190 557 l 190 571 l 253 571 l 253 953 l 188 946 l 188 958 l 311 974 l 317 969 m 349 429 l 349 139 l 421 139 l 421 203 l 435 203 l 435 67 l 421 67 l 421 125 l 349 125 l 349 14 l 404 14 l 404 -1 l 235 -1 l 235 14 l 289 14 l 289 125 l 140 125 l 140 140 q 159 175 140 140 q 206 251 178 210 q 296 389 268 349 q 324 429 324 429 l 349 429 m 154 139 l 289 139 l 289 357 q 279 342 288 354 q 260 315 271 331 q 240 283 250 299 q 221 254 229 267 q 201 221 211 239 q 181 186 190 203 q 163 156 171 169 q 154 139 156 143 "},"":{"ha":522,"x_min":68,"x_max":474,"o":"m 68 507 l 474 507 l 474 476 l 68 476 l 68 507 m 317 969 l 317 569 l 379 569 l 379 557 l 190 557 l 190 569 l 253 569 l 253 953 l 188 946 l 188 958 l 311 974 l 317 969 m 201 354 q 226 343 217 354 q 236 319 236 332 q 222 290 236 300 q 193 281 208 281 q 163 292 174 281 q 151 324 151 304 q 192 393 151 368 q 288 418 232 418 q 333 413 310 418 q 376 397 357 408 q 406 366 394 385 q 418 321 418 347 q 385 242 418 279 q 308 165 353 204 l 176 51 l 351 51 q 392 69 379 51 q 413 117 406 86 q 421 136 417 136 q 425 121 425 136 l 425 115 l 418 0 l 142 0 l 142 32 l 294 176 q 340 238 326 206 q 354 313 354 271 q 271 404 354 404 q 213 392 242 404 q 185 360 185 379 q 190 353 185 353 l 193 353 q 201 354 196 354 "},"":{"ha":522,"x_min":68,"x_max":474,"o":"m 68 499 l 474 499 l 474 469 l 68 469 l 68 499 m 171 908 q 176 929 171 917 q 195 952 182 942 q 230 970 208 963 q 282 978 251 978 q 330 972 307 978 q 372 953 353 965 q 401 922 390 940 q 413 876 413 903 q 401 835 413 853 q 375 804 390 817 q 343 785 360 792 q 315 778 326 779 q 392 740 368 767 q 417 672 417 713 q 406 624 417 647 q 377 585 396 601 q 333 558 358 568 q 276 547 307 547 q 235 552 256 547 q 197 567 214 557 q 169 594 181 578 q 158 631 158 610 q 170 663 158 651 q 199 674 182 674 q 226 664 214 674 q 238 632 238 654 q 226 605 238 613 q 208 594 215 597 q 203 588 203 593 q 207 579 203 583 q 236 565 218 569 q 269 561 254 561 q 332 588 307 561 q 357 671 357 614 q 353 707 357 689 q 338 740 349 725 q 309 763 328 754 q 263 772 290 772 q 240 772 253 772 q 219 771 228 771 q 206 779 206 771 q 219 789 206 789 q 240 788 228 789 q 263 786 253 786 q 325 808 300 786 q 350 882 350 831 q 348 910 350 896 q 338 937 346 925 q 317 956 331 949 q 278 964 303 964 q 243 960 260 964 q 218 950 226 957 q 214 943 214 947 q 219 938 214 939 q 238 926 231 935 q 244 903 244 918 q 234 878 244 888 q 207 869 224 869 q 181 879 192 869 q 171 908 171 889 m 349 429 l 349 139 l 421 139 l 421 203 l 435 203 l 435 67 l 421 67 l 421 125 l 349 125 l 349 14 l 404 14 l 404 -1 l 235 -1 l 235 14 l 289 14 l 289 125 l 140 125 l 140 140 q 159 175 140 140 q 206 251 178 210 q 296 389 268 349 q 324 429 324 429 l 349 429 m 154 139 l 289 139 l 289 357 q 279 342 288 354 q 260 315 271 331 q 240 283 250 299 q 221 254 229 267 q 201 221 211 239 q 181 186 190 203 q 163 156 171 169 q 154 139 156 143 "},"":{"ha":560,"x_min":57,"x_max":492,"o":"m 57 -1 q 70 74 57 36 q 113 147 83 111 q 171 208 138 178 q 234 268 204 239 q 284 324 264 297 q 304 372 304 350 q 304 400 304 388 q 303 422 304 414 q 301 438 301 432 q 300 451 300 444 q 311 461 300 461 q 322 451 321 461 q 333 389 326 429 q 339 307 339 349 q 336 262 339 283 q 326 222 333 240 q 295 167 313 190 q 259 124 278 144 q 220 85 240 104 q 182 42 200 65 q 144 -15 158 13 q 131 -71 131 -43 q 164 -140 131 -108 q 269 -172 197 -172 q 333 -167 307 -172 q 374 -154 358 -161 q 397 -140 390 -147 q 404 -129 404 -133 q 399 -125 404 -126 q 353 -99 367 -118 q 339 -58 339 -81 q 360 -7 339 -28 q 417 14 381 14 q 470 -7 449 14 q 492 -60 492 -28 q 477 -109 492 -85 q 435 -152 463 -133 q 366 -183 407 -171 q 272 -194 325 -194 q 115 -146 172 -194 q 57 -1 57 -97 m 238 654 q 259 708 238 686 q 313 729 281 729 q 366 708 344 729 q 388 654 388 686 q 366 601 388 622 q 313 579 344 579 q 259 601 281 579 q 238 654 238 622 "},"":{"ha":918,"x_min":31,"x_max":896,"o":"m 290 1185 l 397 1185 l 497 992 l 489 986 l 290 1185 m 31 22 l 150 22 l 454 946 l 471 946 l 775 22 l 896 22 l 896 0 l 489 0 l 489 22 l 632 22 l 542 290 l 263 290 l 175 22 l 339 22 l 339 0 l 31 0 l 31 22 m 401 710 l 271 313 l 535 313 l 401 710 "},"":{"ha":918,"x_min":31,"x_max":896,"o":"m 529 1185 l 636 1185 l 438 986 l 429 992 l 529 1185 m 31 22 l 150 22 l 454 946 l 471 946 l 775 22 l 896 22 l 896 0 l 489 0 l 489 22 l 632 22 l 542 290 l 263 290 l 175 22 l 339 22 l 339 0 l 31 0 l 31 22 m 401 710 l 271 313 l 535 313 l 401 710 "},"":{"ha":918,"x_min":31,"x_max":896,"o":"m 646 1007 l 636 1001 l 457 1096 l 279 1001 l 271 1007 l 453 1192 l 461 1192 l 646 1007 m 31 22 l 150 22 l 454 946 l 471 946 l 775 22 l 896 22 l 896 0 l 489 0 l 489 22 l 632 22 l 542 290 l 263 290 l 175 22 l 339 22 l 339 0 l 31 0 l 31 22 m 401 710 l 271 313 l 535 313 l 401 710 "},"":{"ha":918,"x_min":31,"x_max":896,"o":"m 513 1118 q 560 1099 536 1108 q 607 1090 583 1090 q 648 1102 639 1090 q 658 1129 657 1114 q 675 1149 661 1149 q 689 1128 689 1149 q 683 1099 689 1115 q 663 1067 678 1082 q 621 1040 647 1051 q 551 1029 594 1029 q 488 1035 518 1029 q 421 1057 458 1042 q 373 1080 393 1068 q 332 1092 353 1092 q 290 1078 307 1092 q 271 1042 274 1064 q 257 1022 271 1022 q 242 1046 242 1022 q 250 1078 242 1060 q 275 1112 258 1096 q 318 1139 292 1128 q 382 1150 344 1150 q 447 1141 414 1150 q 513 1118 481 1132 m 31 22 l 150 22 l 454 946 l 471 946 l 775 22 l 896 22 l 896 0 l 489 0 l 489 22 l 632 22 l 542 290 l 263 290 l 175 22 l 339 22 l 339 0 l 31 0 l 31 22 m 401 710 l 271 313 l 535 313 l 401 710 "},"":{"ha":918,"x_min":31,"x_max":896,"o":"m 419 1085 q 401 1038 419 1057 q 354 1019 382 1019 q 308 1038 326 1019 q 289 1085 289 1057 q 308 1131 289 1113 q 354 1150 326 1150 q 401 1131 382 1150 q 419 1085 419 1113 m 631 1085 q 612 1038 631 1057 q 565 1019 593 1019 q 519 1038 538 1019 q 500 1085 500 1057 q 519 1131 500 1113 q 565 1150 538 1150 q 612 1131 593 1150 q 631 1085 631 1113 m 31 22 l 150 22 l 454 946 l 471 946 l 775 22 l 896 22 l 896 0 l 489 0 l 489 22 l 632 22 l 542 290 l 263 290 l 175 22 l 339 22 l 339 0 l 31 0 l 31 22 m 401 710 l 271 313 l 535 313 l 401 710 "},"":{"ha":918,"x_min":31,"x_max":896,"o":"m 563 1108 q 532 1035 563 1065 q 458 1004 501 1004 q 385 1035 415 1004 q 354 1108 354 1065 q 385 1182 354 1151 q 458 1213 415 1213 q 532 1182 501 1213 q 563 1108 563 1151 m 376 1108 q 400 1050 376 1074 q 458 1026 424 1026 q 517 1050 493 1026 q 540 1108 540 1074 q 517 1167 540 1143 q 458 1190 493 1190 q 400 1167 424 1190 q 376 1108 376 1143 m 31 22 l 150 22 l 454 946 l 471 946 l 775 22 l 896 22 l 896 0 l 489 0 l 489 22 l 632 22 l 542 290 l 263 290 l 175 22 l 339 22 l 339 0 l 31 0 l 31 22 m 401 710 l 271 313 l 535 313 l 401 710 "},"":{"ha":1329,"x_min":36,"x_max":1296,"o":"m 440 418 l 717 418 l 717 857 l 440 418 m 1257 900 l 1257 689 q 1247 671 1257 671 q 1236 690 1236 671 q 1226 759 1235 721 q 1197 831 1217 797 q 1146 888 1178 865 q 1067 911 1114 911 l 856 911 l 856 503 l 965 503 q 1014 512 996 503 q 1042 538 1032 521 q 1058 578 1053 554 q 1069 631 1064 601 q 1081 650 1074 650 q 1089 633 1089 650 l 1089 351 q 1081 333 1089 333 q 1069 353 1074 333 q 1058 406 1064 382 q 1042 446 1053 429 q 1014 472 1032 463 q 965 481 996 481 l 856 481 l 856 22 l 1079 22 q 1160 39 1128 22 q 1213 87 1192 56 q 1246 161 1233 118 q 1269 257 1258 204 q 1285 286 1275 286 q 1296 253 1296 286 l 1296 44 q 1288 15 1296 29 q 1254 0 1281 0 l 601 0 l 601 22 l 717 22 l 717 396 l 425 396 l 188 22 l 339 22 l 339 0 l 36 0 l 36 22 l 153 22 l 719 911 l 600 911 l 600 933 l 1211 933 q 1247 925 1236 933 q 1257 900 1257 917 "},"":{"ha":851,"x_min":53,"x_max":800,"o":"m 53 467 q 85 642 53 556 q 174 797 117 729 q 310 907 232 865 q 481 949 389 949 q 599 930 543 949 q 699 875 654 911 l 753 931 q 771 942 764 942 q 779 938 776 942 q 782 921 782 933 l 782 694 q 775 678 782 678 q 765 692 769 678 q 726 778 750 736 q 669 851 701 819 q 585 903 633 886 q 479 921 536 921 q 287 823 349 921 q 225 542 225 725 l 225 386 q 285 99 225 196 q 472 3 346 3 q 574 22 528 3 q 657 76 619 42 q 724 160 694 111 q 779 265 754 208 q 793 281 786 281 q 800 267 800 281 l 800 -1 q 792 -11 800 -11 q 779 -4 786 -11 l 706 76 q 605 1 661 28 q 488 -28 549 -25 l 478 -79 q 498 -88 486 -82 q 520 -105 510 -94 q 538 -129 531 -115 q 544 -161 544 -143 q 519 -217 544 -194 q 453 -239 494 -239 q 401 -222 424 -239 q 363 -181 378 -204 q 357 -165 357 -171 q 361 -160 357 -160 q 378 -171 367 -160 q 403 -191 389 -185 q 433 -197 418 -197 q 471 -185 454 -197 q 488 -149 488 -174 q 472 -108 488 -122 q 442 -87 457 -94 l 456 -28 q 308 17 381 -24 q 179 124 236 57 q 88 278 122 190 q 53 467 53 367 "},"":{"ha":797,"x_min":46,"x_max":740,"o":"m 226 1185 l 335 1185 l 435 992 l 425 986 l 226 1185 m 300 481 l 300 22 l 524 22 q 604 39 572 22 q 657 87 636 56 q 690 161 678 118 q 714 257 703 204 q 729 286 719 286 q 740 253 740 286 l 740 44 q 700 0 740 0 l 47 0 l 47 22 l 165 22 l 165 911 l 46 911 l 46 933 l 667 933 q 701 900 701 933 l 701 689 q 692 671 701 671 q 681 690 681 671 q 670 759 679 721 q 642 831 661 797 q 590 888 622 865 q 511 911 558 911 l 300 911 l 300 503 l 410 503 q 458 512 440 503 q 487 538 476 521 q 503 578 497 554 q 514 631 508 601 q 525 650 518 650 q 533 633 533 650 l 533 351 q 525 333 533 333 q 514 353 518 333 q 503 406 508 382 q 487 446 497 429 q 458 472 476 463 q 410 481 440 481 l 300 481 "},"":{"ha":797,"x_min":46,"x_max":740,"o":"m 497 1185 l 604 1185 l 406 986 l 397 992 l 497 1185 m 300 481 l 300 22 l 524 22 q 604 39 572 22 q 657 87 636 56 q 690 161 678 118 q 714 257 703 204 q 729 286 719 286 q 740 253 740 286 l 740 44 q 700 0 740 0 l 47 0 l 47 22 l 165 22 l 165 911 l 46 911 l 46 933 l 667 933 q 701 900 701 933 l 701 689 q 692 671 701 671 q 681 690 681 671 q 670 759 679 721 q 642 831 661 797 q 590 888 622 865 q 511 911 558 911 l 300 911 l 300 503 l 410 503 q 458 512 440 503 q 487 538 476 521 q 503 578 497 554 q 514 631 508 601 q 525 650 518 650 q 533 633 533 650 l 533 351 q 525 333 533 333 q 514 353 518 333 q 503 406 508 382 q 487 446 497 429 q 458 472 476 463 q 410 481 440 481 l 300 481 "},"":{"ha":797,"x_min":46,"x_max":740,"o":"m 610 1007 l 600 1001 l 421 1096 l 243 1001 l 235 1007 l 417 1192 l 425 1192 l 610 1007 m 300 481 l 300 22 l 524 22 q 604 39 572 22 q 657 87 636 56 q 690 161 678 118 q 714 257 703 204 q 729 286 719 286 q 740 253 740 286 l 740 44 q 700 0 740 0 l 47 0 l 47 22 l 165 22 l 165 911 l 46 911 l 46 933 l 667 933 q 701 900 701 933 l 701 689 q 692 671 701 671 q 681 690 681 671 q 670 759 679 721 q 642 831 661 797 q 590 888 622 865 q 511 911 558 911 l 300 911 l 300 503 l 410 503 q 458 512 440 503 q 487 538 476 521 q 503 578 497 554 q 514 631 508 601 q 525 650 518 650 q 533 633 533 650 l 533 351 q 525 333 533 333 q 514 353 518 333 q 503 406 508 382 q 487 446 497 429 q 458 472 476 463 q 410 481 440 481 l 300 481 "},"":{"ha":797,"x_min":46,"x_max":740,"o":"m 376 1085 q 358 1038 376 1057 q 311 1019 339 1019 q 265 1038 283 1019 q 246 1085 246 1057 q 265 1131 246 1113 q 311 1150 283 1150 q 358 1131 339 1150 q 376 1085 376 1113 m 588 1085 q 569 1038 588 1057 q 522 1019 550 1019 q 476 1038 494 1019 q 457 1085 457 1057 q 476 1131 457 1113 q 522 1150 494 1150 q 569 1131 550 1150 q 588 1085 588 1113 m 300 481 l 300 22 l 524 22 q 604 39 572 22 q 657 87 636 56 q 690 161 678 118 q 714 257 703 204 q 729 286 719 286 q 740 253 740 286 l 740 44 q 700 0 740 0 l 47 0 l 47 22 l 165 22 l 165 911 l 46 911 l 46 933 l 667 933 q 701 900 701 933 l 701 689 q 692 671 701 671 q 681 690 681 671 q 670 759 679 721 q 642 831 661 797 q 590 888 622 865 q 511 911 558 911 l 300 911 l 300 503 l 410 503 q 458 512 440 503 q 487 538 476 521 q 503 578 497 554 q 514 631 508 601 q 525 650 518 650 q 533 633 533 650 l 533 351 q 525 333 533 333 q 514 353 518 333 q 503 406 508 382 q 487 446 497 429 q 458 472 476 463 q 410 481 440 481 l 300 481 "},"":{"ha":493,"x_min":51,"x_max":433,"o":"m 51 1185 l 158 1185 l 258 992 l 250 986 l 51 1185 m 433 911 l 314 911 l 314 22 l 433 22 l 433 0 l 60 0 l 60 22 l 179 22 l 179 911 l 60 911 l 60 933 l 433 933 l 433 911 "},"":{"ha":493,"x_min":60,"x_max":443,"o":"m 336 1185 l 443 1185 l 244 986 l 236 992 l 336 1185 m 433 911 l 314 911 l 314 22 l 433 22 l 433 0 l 60 0 l 60 22 l 179 22 l 179 911 l 60 911 l 60 933 l 433 933 l 433 911 "},"":{"ha":493,"x_min":51,"x_max":433,"o":"m 425 1007 l 417 1001 l 238 1096 l 60 1001 l 51 1007 l 233 1192 l 242 1192 l 425 1007 m 433 911 l 314 911 l 314 22 l 433 22 l 433 0 l 60 0 l 60 22 l 179 22 l 179 911 l 60 911 l 60 933 l 433 933 l 433 911 "},"":{"ha":493,"x_min":60,"x_max":433,"o":"m 201 1085 q 183 1038 201 1057 q 136 1019 164 1019 q 90 1038 108 1019 q 71 1085 71 1057 q 90 1131 71 1113 q 136 1150 108 1150 q 183 1131 164 1150 q 201 1085 201 1113 m 413 1085 q 394 1038 413 1057 q 347 1019 375 1019 q 301 1038 319 1019 q 282 1085 282 1057 q 301 1131 282 1113 q 347 1150 319 1150 q 394 1131 375 1150 q 413 1085 413 1113 m 433 911 l 314 911 l 314 22 l 433 22 l 433 0 l 60 0 l 60 22 l 179 22 l 179 911 l 60 911 l 60 933 l 433 933 l 433 911 "},"":{"ha":919,"x_min":15,"x_max":889,"o":"m 301 475 l 493 475 l 493 442 l 301 442 l 301 22 l 451 22 q 561 42 510 22 q 651 109 613 61 q 713 238 690 157 q 736 443 736 319 l 736 513 q 713 701 736 625 q 652 824 690 778 q 563 891 614 871 q 454 911 511 911 l 301 911 l 301 475 m 167 442 l 15 442 l 15 475 l 167 475 l 167 911 l 44 911 l 44 933 l 454 933 q 630 901 550 933 q 767 808 710 868 q 857 663 825 747 q 889 478 889 579 q 858 281 889 369 q 769 131 826 193 q 632 34 713 68 q 454 0 551 0 l 44 0 l 44 22 l 167 22 l 167 442 "},"":{"ha":913,"x_min":38,"x_max":883,"o":"m 513 1118 q 560 1099 536 1108 q 607 1090 583 1090 q 648 1102 639 1090 q 658 1129 657 1114 q 675 1149 661 1149 q 689 1128 689 1149 q 683 1099 689 1115 q 663 1067 678 1082 q 621 1040 647 1051 q 551 1029 594 1029 q 488 1035 518 1029 q 421 1057 458 1042 q 373 1080 393 1068 q 332 1092 353 1092 q 290 1078 307 1092 q 271 1042 274 1064 q 257 1022 271 1022 q 242 1046 242 1022 q 250 1078 242 1060 q 275 1112 258 1096 q 318 1139 292 1128 q 382 1150 344 1150 q 447 1141 414 1150 q 513 1118 481 1132 m 38 22 l 157 22 l 157 911 l 38 911 l 38 933 l 311 933 l 742 229 l 742 911 l 622 911 l 622 933 l 883 933 l 883 911 l 764 911 l 764 -11 l 717 -11 l 179 871 l 179 22 l 299 22 l 299 0 l 38 0 l 38 22 "},"":{"ha":960,"x_min":56,"x_max":917,"o":"m 290 1185 l 397 1185 l 497 992 l 489 986 l 290 1185 m 486 -26 q 319 15 397 -26 q 182 124 240 56 q 90 280 124 192 q 56 463 56 368 q 90 645 56 557 q 182 801 124 733 q 319 908 240 868 q 486 949 397 949 q 653 908 575 949 q 790 801 732 868 q 883 645 849 733 q 917 463 917 557 q 883 280 917 368 q 790 124 849 192 q 653 15 732 56 q 486 -26 575 -26 m 486 924 q 375 903 424 924 q 294 835 326 882 q 244 715 261 789 q 226 532 226 640 l 226 393 q 293 95 226 192 q 486 -1 360 -1 q 679 95 613 -1 q 746 393 746 192 l 746 532 q 728 718 746 643 q 678 839 711 793 q 597 904 646 885 q 486 924 549 924 "},"":{"ha":960,"x_min":56,"x_max":917,"o":"m 551 1185 l 658 1185 l 460 986 l 451 992 l 551 1185 m 486 -26 q 319 15 397 -26 q 182 124 240 56 q 90 280 124 192 q 56 463 56 368 q 90 645 56 557 q 182 801 124 733 q 319 908 240 868 q 486 949 397 949 q 653 908 575 949 q 790 801 732 868 q 883 645 849 733 q 917 463 917 557 q 883 280 917 368 q 790 124 849 192 q 653 15 732 56 q 486 -26 575 -26 m 486 924 q 375 903 424 924 q 294 835 326 882 q 244 715 261 789 q 226 532 226 640 l 226 393 q 293 95 226 192 q 486 -1 360 -1 q 679 95 613 -1 q 746 393 746 192 l 746 532 q 728 718 746 643 q 678 839 711 793 q 597 904 646 885 q 486 924 549 924 "},"":{"ha":960,"x_min":56,"x_max":917,"o":"m 678 1007 l 669 1001 l 490 1096 l 313 1001 l 303 1007 l 485 1192 l 494 1192 l 678 1007 m 486 -26 q 319 15 397 -26 q 182 124 240 56 q 90 280 124 192 q 56 463 56 368 q 90 645 56 557 q 182 801 124 733 q 319 908 240 868 q 486 949 397 949 q 653 908 575 949 q 790 801 732 868 q 883 645 849 733 q 917 463 917 557 q 883 280 917 368 q 790 124 849 192 q 653 15 732 56 q 486 -26 575 -26 m 486 924 q 375 903 424 924 q 294 835 326 882 q 244 715 261 789 q 226 532 226 640 l 226 393 q 293 95 226 192 q 486 -1 360 -1 q 679 95 613 -1 q 746 393 746 192 l 746 532 q 728 718 746 643 q 678 839 711 793 q 597 904 646 885 q 486 924 549 924 "},"":{"ha":960,"x_min":56,"x_max":917,"o":"m 529 1118 q 576 1099 553 1108 q 624 1090 600 1090 q 665 1102 656 1090 q 675 1129 674 1114 q 692 1149 678 1149 q 706 1128 706 1149 q 700 1099 706 1115 q 679 1067 694 1082 q 638 1040 664 1051 q 568 1029 611 1029 q 505 1035 535 1029 q 438 1057 475 1042 q 390 1080 410 1068 q 349 1092 369 1092 q 307 1078 324 1092 q 288 1042 290 1064 q 274 1022 288 1022 q 258 1046 258 1022 q 267 1078 258 1060 q 292 1112 275 1096 q 335 1139 308 1128 q 399 1150 361 1150 q 464 1141 431 1150 q 529 1118 497 1132 m 486 -26 q 319 15 397 -26 q 182 124 240 56 q 90 280 124 192 q 56 463 56 368 q 90 645 56 557 q 182 801 124 733 q 319 908 240 868 q 486 949 397 949 q 653 908 575 949 q 790 801 732 868 q 883 645 849 733 q 917 463 917 557 q 883 280 917 368 q 790 124 849 192 q 653 15 732 56 q 486 -26 575 -26 m 486 924 q 375 903 424 924 q 294 835 326 882 q 244 715 261 789 q 226 532 226 640 l 226 393 q 293 95 226 192 q 486 -1 360 -1 q 679 95 613 -1 q 746 393 746 192 l 746 532 q 728 718 746 643 q 678 839 711 793 q 597 904 646 885 q 486 924 549 924 "},"":{"ha":960,"x_min":56,"x_max":917,"o":"m 449 1085 q 430 1038 449 1057 q 383 1019 411 1019 q 337 1038 356 1019 q 318 1085 318 1057 q 337 1131 318 1113 q 383 1150 356 1150 q 430 1131 411 1150 q 449 1085 449 1113 m 660 1085 q 641 1038 660 1057 q 594 1019 622 1019 q 548 1038 567 1019 q 529 1085 529 1057 q 548 1131 529 1113 q 594 1150 567 1150 q 641 1131 622 1150 q 660 1085 660 1113 m 486 -26 q 319 15 397 -26 q 182 124 240 56 q 90 280 124 192 q 56 463 56 368 q 90 645 56 557 q 182 801 124 733 q 319 908 240 868 q 486 949 397 949 q 653 908 575 949 q 790 801 732 868 q 883 645 849 733 q 917 463 917 557 q 883 280 917 368 q 790 124 849 192 q 653 15 732 56 q 486 -26 575 -26 m 486 924 q 375 903 424 924 q 294 835 326 882 q 244 715 261 789 q 226 532 226 640 l 226 393 q 293 95 226 192 q 486 -1 360 -1 q 679 95 613 -1 q 746 393 746 192 l 746 532 q 728 718 746 643 q 678 839 711 793 q 597 904 646 885 q 486 924 549 924 "},"":{"ha":783,"x_min":53,"x_max":732,"o":"m 53 624 l 119 690 l 392 417 l 665 690 l 732 624 l 458 351 l 732 78 l 665 11 l 392 285 l 119 11 l 53 78 l 325 351 l 53 624 "},"":{"ha":997,"x_min":56,"x_max":917,"o":"m 633 883 l 314 69 q 486 -1 378 -1 q 679 95 613 -1 q 746 393 746 192 l 746 532 q 717 761 746 678 q 633 883 689 844 m 292 97 l 608 899 q 551 918 582 913 q 486 924 521 924 q 375 903 424 924 q 294 835 326 882 q 244 715 261 789 q 226 532 226 640 l 226 393 q 292 97 226 199 m 271 43 q 183 122 222 76 q 115 222 143 168 q 71 338 86 276 q 56 463 56 399 q 90 645 56 557 q 182 801 124 733 q 319 908 240 868 q 486 949 397 949 q 618 924 556 949 l 654 1015 l 682 1006 l 644 913 q 754 838 704 885 q 840 732 804 792 q 897 603 876 672 q 917 463 917 535 q 883 280 917 368 q 790 124 849 192 q 653 15 732 56 q 486 -26 575 -26 q 388 -12 435 -26 q 297 26 340 1 l 239 -121 l 211 -108 l 271 43 "},"":{"ha":886,"x_min":31,"x_max":861,"o":"m 294 1185 l 401 1185 l 501 992 l 493 986 l 294 1185 m 404 933 l 404 911 l 285 911 l 285 232 q 341 59 285 119 q 494 -1 397 -1 q 583 14 542 -1 q 654 59 624 29 q 702 133 685 89 q 719 232 719 176 l 719 911 l 600 911 l 600 933 l 861 933 l 861 911 l 742 911 l 742 232 q 668 38 742 103 q 463 -26 594 -26 q 353 -14 408 -26 q 252 29 297 -1 q 178 109 207 60 q 150 232 150 158 l 150 911 l 31 911 l 31 933 l 404 933 "},"":{"ha":886,"x_min":31,"x_max":861,"o":"m 569 1185 l 676 1185 l 478 986 l 469 992 l 569 1185 m 404 933 l 404 911 l 285 911 l 285 232 q 341 59 285 119 q 494 -1 397 -1 q 583 14 542 -1 q 654 59 624 29 q 702 133 685 89 q 719 232 719 176 l 719 911 l 600 911 l 600 933 l 861 933 l 861 911 l 742 911 l 742 232 q 668 38 742 103 q 463 -26 594 -26 q 353 -14 408 -26 q 252 29 297 -1 q 178 109 207 60 q 150 232 150 158 l 150 911 l 31 911 l 31 933 l 404 933 "},"":{"ha":886,"x_min":31,"x_max":861,"o":"m 660 1007 l 651 1001 l 472 1096 l 294 1001 l 285 1007 l 468 1192 l 476 1192 l 660 1007 m 404 933 l 404 911 l 285 911 l 285 232 q 341 59 285 119 q 494 -1 397 -1 q 583 14 542 -1 q 654 59 624 29 q 702 133 685 89 q 719 232 719 176 l 719 911 l 600 911 l 600 933 l 861 933 l 861 911 l 742 911 l 742 232 q 668 38 742 103 q 463 -26 594 -26 q 353 -14 408 -26 q 252 29 297 -1 q 178 109 207 60 q 150 232 150 158 l 150 911 l 31 911 l 31 933 l 404 933 "},"":{"ha":886,"x_min":31,"x_max":861,"o":"m 429 1085 q 410 1038 429 1057 q 364 1019 392 1019 q 317 1038 336 1019 q 299 1085 299 1057 q 317 1131 299 1113 q 364 1150 336 1150 q 410 1131 392 1150 q 429 1085 429 1113 m 640 1085 q 622 1038 640 1057 q 575 1019 603 1019 q 528 1038 547 1019 q 510 1085 510 1057 q 528 1131 510 1113 q 575 1150 547 1150 q 622 1131 603 1150 q 640 1085 640 1113 m 404 933 l 404 911 l 285 911 l 285 232 q 341 59 285 119 q 494 -1 397 -1 q 583 14 542 -1 q 654 59 624 29 q 702 133 685 89 q 719 232 719 176 l 719 911 l 600 911 l 600 933 l 861 933 l 861 911 l 742 911 l 742 232 q 668 38 742 103 q 463 -26 594 -26 q 353 -14 408 -26 q 252 29 297 -1 q 178 109 207 60 q 150 232 150 158 l 150 911 l 31 911 l 31 933 l 404 933 "},"":{"ha":919,"x_min":44,"x_max":901,"o":"m 608 1185 l 715 1185 l 517 986 l 508 992 l 608 1185 m 432 933 l 432 911 l 304 911 l 538 519 l 753 911 l 618 911 l 618 933 l 901 933 l 901 911 l 789 911 l 560 494 l 560 22 l 693 22 l 693 0 l 292 0 l 292 22 l 425 22 l 425 458 l 156 911 l 44 911 l 44 933 l 432 933 "},"":{"ha":753,"x_min":40,"x_max":714,"o":"m 294 731 l 425 731 q 545 713 492 731 q 636 661 599 694 q 694 581 674 628 q 714 479 714 535 q 694 376 714 422 q 638 296 674 329 q 551 244 601 263 q 439 225 500 225 l 294 225 l 294 22 l 414 22 l 414 0 l 42 0 l 42 22 l 160 22 l 160 911 l 40 911 q 40 922 40 911 q 42 933 40 935 l 414 933 l 414 911 l 294 911 l 294 731 m 294 247 l 439 247 q 547 297 504 247 q 590 454 590 347 l 590 504 q 547 662 590 615 q 425 708 503 708 l 294 708 l 294 247 "},"":{"ha":786,"x_min":47,"x_max":746,"o":"m 47 22 l 153 22 l 153 522 l 47 522 l 47 544 l 153 544 l 153 643 q 222 864 153 794 q 404 933 292 933 q 560 876 504 933 q 615 718 615 819 q 606 649 615 679 q 583 596 597 619 q 550 553 568 572 q 513 518 532 535 q 497 494 497 506 q 502 485 497 488 q 514 479 507 482 q 600 449 558 468 q 674 400 642 429 q 726 329 707 371 q 746 232 746 288 q 728 121 746 167 q 681 44 711 75 q 610 0 651 14 q 522 -14 569 -14 q 428 5 463 -14 q 393 68 393 24 q 408 110 393 96 q 442 124 422 124 q 472 111 458 124 q 485 74 485 99 q 476 44 485 54 q 457 31 467 35 q 450 24 450 28 q 469 15 450 21 q 524 8 489 8 q 590 19 558 8 q 647 50 622 31 q 687 98 672 69 q 701 163 701 126 q 678 238 701 204 q 619 297 654 271 q 543 342 583 324 q 469 371 503 360 q 418 432 418 388 q 427 467 418 454 q 454 496 436 481 q 508 542 483 519 q 552 592 533 565 q 582 649 571 618 q 593 718 593 679 q 542 859 593 807 q 404 911 492 911 q 307 872 342 911 q 272 726 272 832 l 272 22 l 376 22 l 376 0 l 47 0 l 47 22 "},"":{"ha":615,"x_min":63,"x_max":604,"o":"m 83 888 l 203 888 l 315 672 l 304 667 l 83 888 m 160 531 q 224 555 185 546 q 307 564 264 564 q 443 531 399 564 q 488 439 488 499 l 488 103 q 493 40 488 63 q 526 17 499 17 q 563 31 546 17 q 590 69 579 46 q 600 81 596 81 q 604 74 604 81 q 598 49 604 65 q 576 18 592 33 q 537 -8 561 3 q 476 -19 513 -19 q 399 5 421 -19 q 372 58 376 29 q 350 33 364 46 q 316 8 336 19 q 270 -12 296 -4 q 213 -19 244 -19 q 155 -12 182 -19 q 107 9 128 -6 q 74 48 86 24 q 63 106 63 72 q 86 188 63 151 q 151 250 110 225 q 249 288 193 275 q 368 301 304 301 l 368 465 q 343 529 368 513 q 275 546 318 546 q 244 543 260 546 q 215 536 228 540 q 194 526 203 532 q 186 515 186 521 q 190 508 186 511 q 201 499 194 506 q 215 478 211 489 q 218 458 218 468 q 203 424 218 438 q 165 410 189 410 q 128 426 142 410 q 115 461 115 442 q 160 531 115 501 m 368 288 q 295 278 331 285 q 233 257 260 272 q 189 214 206 242 q 172 140 172 186 q 194 50 172 83 q 260 17 217 17 q 291 24 272 17 q 327 42 310 31 q 356 68 344 54 q 368 94 368 82 l 368 288 "},"":{"ha":615,"x_min":63,"x_max":604,"o":"m 360 888 l 479 888 l 258 667 l 247 672 l 360 888 m 160 531 q 224 555 185 546 q 307 564 264 564 q 443 531 399 564 q 488 439 488 499 l 488 103 q 493 40 488 63 q 526 17 499 17 q 563 31 546 17 q 590 69 579 46 q 600 81 596 81 q 604 74 604 81 q 598 49 604 65 q 576 18 592 33 q 537 -8 561 3 q 476 -19 513 -19 q 399 5 421 -19 q 372 58 376 29 q 350 33 364 46 q 316 8 336 19 q 270 -12 296 -4 q 213 -19 244 -19 q 155 -12 182 -19 q 107 9 128 -6 q 74 48 86 24 q 63 106 63 72 q 86 188 63 151 q 151 250 110 225 q 249 288 193 275 q 368 301 304 301 l 368 465 q 343 529 368 513 q 275 546 318 546 q 244 543 260 546 q 215 536 228 540 q 194 526 203 532 q 186 515 186 521 q 190 508 186 511 q 201 499 194 506 q 215 478 211 489 q 218 458 218 468 q 203 424 218 438 q 165 410 189 410 q 128 426 142 410 q 115 461 115 442 q 160 531 115 501 m 368 288 q 295 278 331 285 q 233 257 260 272 q 189 214 206 242 q 172 140 172 186 q 194 50 172 83 q 260 17 217 17 q 291 24 272 17 q 327 42 310 31 q 356 68 344 54 q 368 94 368 82 l 368 288 "},"":{"ha":615,"x_min":63,"x_max":604,"o":"m 483 693 l 475 689 l 296 782 l 118 689 l 108 693 l 292 878 l 300 878 l 483 693 m 160 531 q 224 555 185 546 q 307 564 264 564 q 443 531 399 564 q 488 439 488 499 l 488 103 q 493 40 488 63 q 526 17 499 17 q 563 31 546 17 q 590 69 579 46 q 600 81 596 81 q 604 74 604 81 q 598 49 604 65 q 576 18 592 33 q 537 -8 561 3 q 476 -19 513 -19 q 399 5 421 -19 q 372 58 376 29 q 350 33 364 46 q 316 8 336 19 q 270 -12 296 -4 q 213 -19 244 -19 q 155 -12 182 -19 q 107 9 128 -6 q 74 48 86 24 q 63 106 63 72 q 86 188 63 151 q 151 250 110 225 q 249 288 193 275 q 368 301 304 301 l 368 465 q 343 529 368 513 q 275 546 318 546 q 244 543 260 546 q 215 536 228 540 q 194 526 203 532 q 186 515 186 521 q 190 508 186 511 q 201 499 194 506 q 215 478 211 489 q 218 458 218 468 q 203 424 218 438 q 165 410 189 410 q 128 426 142 410 q 115 461 115 442 q 160 531 115 501 m 368 288 q 295 278 331 285 q 233 257 260 272 q 189 214 206 242 q 172 140 172 186 q 194 50 172 83 q 260 17 217 17 q 291 24 272 17 q 327 42 310 31 q 356 68 344 54 q 368 94 368 82 l 368 288 "},"":{"ha":615,"x_min":63,"x_max":604,"o":"m 346 810 q 393 791 369 800 q 440 782 417 782 q 481 794 472 782 q 492 821 490 806 q 508 840 494 840 q 522 819 522 840 q 517 790 522 807 q 496 758 511 774 q 454 732 481 743 q 385 721 428 721 q 322 727 351 721 q 254 749 292 733 q 206 772 226 760 q 165 783 186 783 q 124 769 140 783 q 104 733 107 756 q 90 714 104 714 q 75 738 75 714 q 83 769 75 751 q 108 803 92 788 q 151 831 125 819 q 215 842 178 842 q 281 833 247 842 q 346 810 314 824 m 160 531 q 224 555 185 546 q 307 564 264 564 q 443 531 399 564 q 488 439 488 499 l 488 103 q 493 40 488 63 q 526 17 499 17 q 563 31 546 17 q 590 69 579 46 q 600 81 596 81 q 604 74 604 81 q 598 49 604 65 q 576 18 592 33 q 537 -8 561 3 q 476 -19 513 -19 q 399 5 421 -19 q 372 58 376 29 q 350 33 364 46 q 316 8 336 19 q 270 -12 296 -4 q 213 -19 244 -19 q 155 -12 182 -19 q 107 9 128 -6 q 74 48 86 24 q 63 106 63 72 q 86 188 63 151 q 151 250 110 225 q 249 288 193 275 q 368 301 304 301 l 368 465 q 343 529 368 513 q 275 546 318 546 q 244 543 260 546 q 215 536 228 540 q 194 526 203 532 q 186 515 186 521 q 190 508 186 511 q 201 499 194 506 q 215 478 211 489 q 218 458 218 468 q 203 424 218 438 q 165 410 189 410 q 128 426 142 410 q 115 461 115 442 q 160 531 115 501 m 368 288 q 295 278 331 285 q 233 257 260 272 q 189 214 206 242 q 172 140 172 186 q 194 50 172 83 q 260 17 217 17 q 291 24 272 17 q 327 42 310 31 q 356 68 344 54 q 368 94 368 82 l 368 288 "},"":{"ha":615,"x_min":63,"x_max":604,"o":"m 256 801 q 237 755 256 774 q 190 736 218 736 q 144 755 163 736 q 125 801 125 774 q 144 848 125 829 q 190 867 163 867 q 237 848 218 867 q 256 801 256 829 m 467 801 q 448 755 467 774 q 401 736 429 736 q 355 755 374 736 q 336 801 336 774 q 355 848 336 829 q 401 867 374 867 q 448 848 429 867 q 467 801 467 829 m 160 531 q 224 555 185 546 q 307 564 264 564 q 443 531 399 564 q 488 439 488 499 l 488 103 q 493 40 488 63 q 526 17 499 17 q 563 31 546 17 q 590 69 579 46 q 600 81 596 81 q 604 74 604 81 q 598 49 604 65 q 576 18 592 33 q 537 -8 561 3 q 476 -19 513 -19 q 399 5 421 -19 q 372 58 376 29 q 350 33 364 46 q 316 8 336 19 q 270 -12 296 -4 q 213 -19 244 -19 q 155 -12 182 -19 q 107 9 128 -6 q 74 48 86 24 q 63 106 63 72 q 86 188 63 151 q 151 250 110 225 q 249 288 193 275 q 368 301 304 301 l 368 465 q 343 529 368 513 q 275 546 318 546 q 244 543 260 546 q 215 536 228 540 q 194 526 203 532 q 186 515 186 521 q 190 508 186 511 q 201 499 194 506 q 215 478 211 489 q 218 458 218 468 q 203 424 218 438 q 165 410 189 410 q 128 426 142 410 q 115 461 115 442 q 160 531 115 501 m 368 288 q 295 278 331 285 q 233 257 260 272 q 189 214 206 242 q 172 140 172 186 q 194 50 172 83 q 260 17 217 17 q 291 24 272 17 q 327 42 310 31 q 356 68 344 54 q 368 94 368 82 l 368 288 "},"":{"ha":604,"x_min":63,"x_max":604,"o":"m 403 767 q 372 693 403 724 q 299 663 342 663 q 225 693 256 663 q 194 767 194 724 q 225 840 194 810 q 299 871 256 871 q 372 840 342 871 q 403 767 403 810 m 217 767 q 240 708 217 732 q 299 685 264 685 q 357 708 333 685 q 381 767 381 732 q 357 825 381 801 q 299 849 333 849 q 240 825 264 849 q 217 767 217 801 m 160 531 q 224 555 185 546 q 307 564 264 564 q 443 531 399 564 q 488 439 488 499 l 488 103 q 493 40 488 63 q 526 17 499 17 q 563 31 546 17 q 590 69 579 46 q 600 81 596 81 q 604 74 604 81 q 598 49 604 65 q 576 18 592 33 q 537 -8 561 3 q 476 -19 513 -19 q 399 5 421 -19 q 372 58 376 29 q 350 33 364 46 q 316 8 336 19 q 270 -12 296 -4 q 213 -19 244 -19 q 155 -12 182 -19 q 107 9 128 -6 q 74 48 86 24 q 63 106 63 72 q 86 188 63 151 q 151 250 110 225 q 249 288 193 275 q 368 301 304 301 l 368 465 q 343 529 368 513 q 275 546 318 546 q 244 543 260 546 q 215 536 228 540 q 194 526 203 532 q 186 515 186 521 q 190 508 186 511 q 201 499 194 506 q 215 478 211 489 q 218 458 218 468 q 203 424 218 438 q 165 410 189 410 q 128 426 142 410 q 115 461 115 442 q 160 531 115 501 m 368 288 q 295 278 331 285 q 233 257 260 272 q 189 214 206 242 q 172 140 172 186 q 194 50 172 83 q 260 17 217 17 q 291 24 272 17 q 327 42 310 31 q 356 68 344 54 q 368 94 368 82 l 368 288 "},"":{"ha":906,"x_min":63,"x_max":861,"o":"m 613 564 q 725 537 679 564 q 799 474 771 510 q 840 399 826 438 q 854 338 853 360 q 832 319 857 319 l 497 319 l 497 178 q 531 44 497 86 q 621 3 565 3 q 702 17 667 3 q 764 53 738 31 q 809 104 790 75 q 840 163 828 133 q 853 176 846 176 q 861 167 861 176 q 857 147 861 157 q 824 83 844 114 q 773 30 803 53 q 704 -6 743 7 q 618 -19 665 -19 q 469 2 525 -19 q 378 64 413 24 q 354 37 369 51 q 318 10 339 22 q 271 -11 297 -3 q 213 -19 244 -19 q 155 -12 182 -19 q 107 9 128 -6 q 74 48 86 24 q 63 106 63 72 q 86 188 63 151 q 151 250 110 225 q 249 288 193 275 q 368 301 304 301 l 368 465 q 343 529 368 513 q 275 546 318 546 q 244 543 260 546 q 215 536 228 540 q 194 526 203 532 q 186 515 186 521 q 190 508 186 511 q 201 499 194 506 q 215 478 211 489 q 218 458 218 468 q 203 424 218 438 q 165 410 189 410 q 128 426 142 410 q 115 461 115 442 q 160 531 115 501 q 224 555 185 546 q 307 564 264 564 q 467 508 424 564 q 534 549 497 535 q 613 564 571 564 m 368 288 q 295 278 331 285 q 233 257 260 272 q 189 214 206 242 q 172 140 172 186 q 194 50 172 83 q 260 17 217 17 q 291 24 272 17 q 327 42 310 31 q 356 68 344 54 q 368 94 368 82 l 368 288 m 497 342 l 703 342 q 724 407 724 342 q 719 456 724 432 q 703 499 715 479 q 669 530 690 518 q 614 542 647 542 q 572 536 593 542 q 535 515 551 531 q 508 472 518 500 q 497 397 497 443 l 497 342 "},"":{"ha":572,"x_min":46,"x_max":549,"o":"m 342 -19 l 333 -67 q 353 -76 342 -69 q 376 -92 365 -82 q 393 -117 386 -103 q 400 -149 400 -131 q 375 -204 400 -182 q 308 -226 350 -226 q 256 -209 279 -226 q 218 -168 233 -192 q 213 -153 213 -158 q 217 -147 213 -147 q 233 -158 222 -147 q 259 -178 244 -172 q 289 -185 274 -185 q 326 -173 310 -185 q 343 -136 343 -161 q 328 -96 343 -110 q 297 -75 313 -82 l 310 -19 q 213 6 260 -17 q 128 65 165 28 q 69 155 92 103 q 46 271 46 207 q 71 390 46 336 q 136 483 96 444 q 228 542 176 521 q 333 564 279 564 q 394 556 363 564 q 453 534 426 549 q 499 498 481 519 q 517 450 517 476 q 500 407 517 424 q 456 390 483 390 q 414 405 432 390 q 396 447 396 419 q 401 477 396 465 q 415 500 406 489 q 419 510 419 504 q 401 528 419 515 q 331 542 382 542 q 268 530 294 542 q 224 490 242 518 q 199 415 207 461 q 190 301 190 369 l 190 240 q 196 130 190 175 q 217 56 201 85 q 260 15 233 28 q 331 3 288 3 q 402 15 369 3 q 459 49 435 28 q 500 95 483 69 q 525 147 517 121 q 538 161 529 161 q 549 149 549 161 q 546 138 549 146 q 525 91 539 117 q 486 42 511 65 q 426 1 461 18 q 342 -19 390 -17 "},"":{"ha":603,"x_min":44,"x_max":553,"o":"m 111 888 l 231 888 l 342 672 l 332 667 l 111 888 m 546 338 q 524 319 546 319 l 189 319 l 189 178 q 223 44 189 86 q 313 3 257 3 q 393 17 358 3 q 455 53 428 31 q 501 104 482 75 q 532 163 519 133 q 544 176 538 176 q 553 167 553 176 q 549 147 553 157 q 515 83 536 114 q 465 30 494 53 q 396 -6 435 7 q 310 -19 357 -19 q 202 6 251 -19 q 118 71 153 31 q 64 163 83 111 q 44 268 44 214 q 64 375 44 322 q 118 469 83 428 q 201 538 153 511 q 304 564 249 564 q 417 537 371 564 q 490 474 463 510 q 531 399 518 438 q 546 338 544 360 m 189 342 l 394 342 q 415 407 415 342 q 411 456 415 432 q 394 499 407 479 q 360 530 382 518 q 306 542 339 542 q 264 536 285 542 q 226 515 243 531 q 199 472 210 500 q 189 397 189 443 l 189 342 "},"":{"ha":603,"x_min":44,"x_max":553,"o":"m 396 888 l 515 888 l 294 667 l 283 672 l 396 888 m 546 338 q 524 319 546 319 l 189 319 l 189 178 q 223 44 189 86 q 313 3 257 3 q 393 17 358 3 q 455 53 428 31 q 501 104 482 75 q 532 163 519 133 q 544 176 538 176 q 553 167 553 176 q 549 147 553 157 q 515 83 536 114 q 465 30 494 53 q 396 -6 435 7 q 310 -19 357 -19 q 202 6 251 -19 q 118 71 153 31 q 64 163 83 111 q 44 268 44 214 q 64 375 44 322 q 118 469 83 428 q 201 538 153 511 q 304 564 249 564 q 417 537 371 564 q 490 474 463 510 q 531 399 518 438 q 546 338 544 360 m 189 342 l 394 342 q 415 407 415 342 q 411 456 415 432 q 394 499 407 479 q 360 530 382 518 q 306 542 339 542 q 264 536 285 542 q 226 515 243 531 q 199 472 210 500 q 189 397 189 443 l 189 342 "},"":{"ha":603,"x_min":44,"x_max":553,"o":"m 508 693 l 499 689 l 319 782 l 142 689 l 133 693 l 315 878 l 324 878 l 508 693 m 546 338 q 524 319 546 319 l 189 319 l 189 178 q 223 44 189 86 q 313 3 257 3 q 393 17 358 3 q 455 53 428 31 q 501 104 482 75 q 532 163 519 133 q 544 176 538 176 q 553 167 553 176 q 549 147 553 157 q 515 83 536 114 q 465 30 494 53 q 396 -6 435 7 q 310 -19 357 -19 q 202 6 251 -19 q 118 71 153 31 q 64 163 83 111 q 44 268 44 214 q 64 375 44 322 q 118 469 83 428 q 201 538 153 511 q 304 564 249 564 q 417 537 371 564 q 490 474 463 510 q 531 399 518 438 q 546 338 544 360 m 189 342 l 394 342 q 415 407 415 342 q 411 456 415 432 q 394 499 407 479 q 360 530 382 518 q 306 542 339 542 q 264 536 285 542 q 226 515 243 531 q 199 472 210 500 q 189 397 189 443 l 189 342 "},"":{"ha":603,"x_min":44,"x_max":553,"o":"m 272 801 q 253 755 272 774 q 207 736 235 736 q 160 755 179 736 q 142 801 142 774 q 160 848 142 829 q 207 867 179 867 q 253 848 235 867 q 272 801 272 829 m 483 801 q 465 755 483 774 q 418 736 446 736 q 372 755 390 736 q 353 801 353 774 q 372 848 353 829 q 418 867 390 867 q 465 848 446 867 q 483 801 483 829 m 546 338 q 524 319 546 319 l 189 319 l 189 178 q 223 44 189 86 q 313 3 257 3 q 393 17 358 3 q 455 53 428 31 q 501 104 482 75 q 532 163 519 133 q 544 176 538 176 q 553 167 553 176 q 549 147 553 157 q 515 83 536 114 q 465 30 494 53 q 396 -6 435 7 q 310 -19 357 -19 q 202 6 251 -19 q 118 71 153 31 q 64 163 83 111 q 44 268 44 214 q 64 375 44 322 q 118 469 83 428 q 201 538 153 511 q 304 564 249 564 q 417 537 371 564 q 490 474 463 510 q 531 399 518 438 q 546 338 544 360 m 189 342 l 394 342 q 415 407 415 342 q 411 456 415 432 q 394 499 407 479 q 360 530 382 518 q 306 542 339 542 q 264 536 285 542 q 226 515 243 531 q 199 472 210 500 q 189 397 189 443 l 189 342 "},"":{"ha":408,"x_min":-11,"x_max":379,"o":"m -11 888 l 108 888 l 221 672 l 211 667 l -11 888 m 275 22 l 379 22 l 379 0 l 51 0 l 51 22 l 156 22 l 156 522 l 51 522 l 51 544 l 275 544 l 275 22 "},"":{"ha":408,"x_min":51,"x_max":408,"o":"m 289 888 l 408 888 l 186 667 l 176 672 l 289 888 m 275 22 l 379 22 l 379 0 l 51 0 l 51 22 l 156 22 l 156 522 l 51 522 l 51 544 l 275 544 l 275 22 "},"":{"ha":408,"x_min":19,"x_max":394,"o":"m 394 693 l 385 689 l 206 782 l 28 689 l 19 693 l 201 878 l 211 878 l 394 693 m 275 22 l 379 22 l 379 0 l 51 0 l 51 22 l 156 22 l 156 522 l 51 522 l 51 544 l 275 544 l 275 22 "},"":{"ha":408,"x_min":39,"x_max":381,"o":"m 169 801 q 151 755 169 774 q 104 736 132 736 q 58 755 76 736 q 39 801 39 774 q 58 848 39 829 q 104 867 76 867 q 151 848 132 867 q 169 801 169 829 m 381 801 q 362 755 381 774 q 315 736 343 736 q 269 755 288 736 q 250 801 250 774 q 269 848 250 829 q 315 867 288 867 q 362 848 343 867 q 381 801 381 829 m 275 22 l 379 22 l 379 0 l 51 0 l 51 22 l 156 22 l 156 522 l 51 522 l 51 544 l 275 544 l 275 22 "},"":{"ha":621,"x_min":40,"x_max":589,"o":"m 185 304 l 185 243 q 190 135 185 181 q 209 61 194 90 q 249 17 224 32 q 315 3 274 3 q 382 17 357 3 q 421 61 407 32 q 440 135 435 90 q 444 243 444 181 l 444 304 q 440 407 444 363 q 422 482 436 451 q 383 528 408 513 q 315 543 358 543 q 248 528 274 543 q 208 482 222 513 q 190 407 194 451 q 185 304 185 363 m 414 543 q 374 642 399 596 q 310 725 350 689 l 261 653 l 208 683 l 261 763 q 150 814 219 792 l 172 850 q 235 833 206 843 q 293 811 265 824 l 350 894 l 403 864 l 347 782 q 510 608 449 715 q 586 360 572 501 q 589 313 589 336 q 589 274 589 290 q 569 176 589 228 q 515 81 550 124 q 428 9 479 38 q 315 -19 378 -19 q 202 9 253 -19 q 115 81 151 38 q 60 176 79 124 q 40 274 40 228 q 60 371 40 319 q 115 465 79 422 q 202 536 151 508 q 315 564 253 564 q 367 558 343 564 q 414 543 392 553 "},"":{"ha":738,"x_min":50,"x_max":706,"o":"m 410 810 q 457 791 433 800 q 504 782 481 782 q 545 794 536 782 q 556 821 554 806 q 572 840 558 840 q 586 819 586 840 q 581 790 586 807 q 560 758 575 774 q 518 732 544 743 q 449 721 492 721 q 385 727 415 721 q 318 749 356 733 q 270 772 290 760 q 229 783 250 783 q 188 769 204 783 q 168 733 171 756 q 154 714 168 714 q 139 738 139 714 q 147 769 139 751 q 172 803 156 788 q 215 831 189 819 q 279 842 242 842 q 344 833 311 842 q 410 810 378 824 m 267 439 q 338 521 290 486 q 463 556 386 556 q 567 528 526 556 q 608 428 608 500 l 608 22 l 706 22 l 706 0 l 392 0 l 392 22 l 489 22 l 489 418 q 470 497 489 472 q 411 522 451 522 q 358 507 383 522 q 312 468 332 492 q 279 417 292 444 q 267 367 267 390 l 267 22 l 364 22 l 364 0 l 50 0 l 50 22 l 147 22 l 147 522 l 50 522 l 50 544 l 267 544 l 267 439 "},"":{"ha":621,"x_min":40,"x_max":589,"o":"m 114 888 l 233 888 l 344 672 l 335 667 l 114 888 m 315 -19 q 202 9 253 -19 q 115 81 151 38 q 60 175 79 124 q 40 272 40 226 q 60 369 40 318 q 115 464 79 421 q 202 535 151 507 q 315 564 253 564 q 428 535 378 564 q 515 464 479 507 q 569 369 550 421 q 589 272 589 318 q 569 175 589 226 q 515 81 550 124 q 428 9 479 38 q 315 -19 378 -19 m 185 303 l 185 243 q 190 135 185 181 q 208 61 194 90 q 248 17 222 32 q 315 3 274 3 q 383 17 357 3 q 422 61 408 32 q 440 135 435 90 q 444 243 444 181 l 444 303 q 440 406 444 361 q 422 481 435 450 q 383 526 408 511 q 315 542 357 542 q 248 526 274 542 q 208 481 222 511 q 190 406 194 450 q 185 303 185 361 "},"":{"ha":621,"x_min":40,"x_max":589,"o":"m 422 888 l 542 888 l 321 667 l 311 672 l 422 888 m 315 -19 q 202 9 253 -19 q 115 81 151 38 q 60 175 79 124 q 40 272 40 226 q 60 369 40 318 q 115 464 79 421 q 202 535 151 507 q 315 564 253 564 q 428 535 378 564 q 515 464 479 507 q 569 369 550 421 q 589 272 589 318 q 569 175 589 226 q 515 81 550 124 q 428 9 479 38 q 315 -19 378 -19 m 185 303 l 185 243 q 190 135 185 181 q 208 61 194 90 q 248 17 222 32 q 315 3 274 3 q 383 17 357 3 q 422 61 408 32 q 440 135 435 90 q 444 243 444 181 l 444 303 q 440 406 444 361 q 422 481 435 450 q 383 526 408 511 q 315 542 357 542 q 248 526 274 542 q 208 481 222 511 q 190 406 194 450 q 185 303 185 361 "},"":{"ha":621,"x_min":40,"x_max":589,"o":"m 503 693 l 494 689 l 315 782 l 138 689 l 128 693 l 311 878 l 319 878 l 503 693 m 315 -19 q 202 9 253 -19 q 115 81 151 38 q 60 175 79 124 q 40 272 40 226 q 60 369 40 318 q 115 464 79 421 q 202 535 151 507 q 315 564 253 564 q 428 535 378 564 q 515 464 479 507 q 569 369 550 421 q 589 272 589 318 q 569 175 589 226 q 515 81 550 124 q 428 9 479 38 q 315 -19 378 -19 m 185 303 l 185 243 q 190 135 185 181 q 208 61 194 90 q 248 17 222 32 q 315 3 274 3 q 383 17 357 3 q 422 61 408 32 q 440 135 435 90 q 444 243 444 181 l 444 303 q 440 406 444 361 q 422 481 435 450 q 383 526 408 511 q 315 542 357 542 q 248 526 274 542 q 208 481 222 511 q 190 406 194 450 q 185 303 185 361 "},"":{"ha":621,"x_min":40,"x_max":589,"o":"m 365 810 q 413 791 389 800 q 460 782 436 782 q 501 794 492 782 q 511 821 510 806 q 528 840 514 840 q 542 819 542 840 q 536 790 542 807 q 515 758 531 774 q 474 732 500 743 q 404 721 447 721 q 341 727 371 721 q 274 749 311 733 q 226 772 246 760 q 185 783 206 783 q 143 769 160 783 q 124 733 126 756 q 110 714 124 714 q 94 738 94 714 q 103 769 94 751 q 128 803 111 788 q 171 831 144 819 q 235 842 197 842 q 300 833 267 842 q 365 810 333 824 m 315 -19 q 202 9 253 -19 q 115 81 151 38 q 60 175 79 124 q 40 272 40 226 q 60 369 40 318 q 115 464 79 421 q 202 535 151 507 q 315 564 253 564 q 428 535 378 564 q 515 464 479 507 q 569 369 550 421 q 589 272 589 318 q 569 175 589 226 q 515 81 550 124 q 428 9 479 38 q 315 -19 378 -19 m 185 303 l 185 243 q 190 135 185 181 q 208 61 194 90 q 248 17 222 32 q 315 3 274 3 q 383 17 357 3 q 422 61 408 32 q 440 135 435 90 q 444 243 444 181 l 444 303 q 440 406 444 361 q 422 481 435 450 q 383 526 408 511 q 315 542 357 542 q 248 526 274 542 q 208 481 222 511 q 190 406 194 450 q 185 303 185 361 "},"":{"ha":621,"x_min":40,"x_max":589,"o":"m 281 801 q 262 755 281 774 q 215 736 243 736 q 169 755 188 736 q 150 801 150 774 q 169 848 150 829 q 215 867 188 867 q 262 848 243 867 q 281 801 281 829 m 492 801 q 473 755 492 774 q 426 736 454 736 q 380 755 399 736 q 361 801 361 774 q 380 848 361 829 q 426 867 399 867 q 473 848 454 867 q 492 801 492 829 m 315 -19 q 202 9 253 -19 q 115 81 151 38 q 60 175 79 124 q 40 272 40 226 q 60 369 40 318 q 115 464 79 421 q 202 535 151 507 q 315 564 253 564 q 428 535 378 564 q 515 464 479 507 q 569 369 550 421 q 589 272 589 318 q 569 175 589 226 q 515 81 550 124 q 428 9 479 38 q 315 -19 378 -19 m 185 303 l 185 243 q 190 135 185 181 q 208 61 194 90 q 248 17 222 32 q 315 3 274 3 q 383 17 357 3 q 422 61 408 32 q 440 135 435 90 q 444 243 444 181 l 444 303 q 440 406 444 361 q 422 481 435 450 q 383 526 408 511 q 315 542 357 542 q 248 526 274 542 q 208 481 222 511 q 190 406 194 450 q 185 303 185 361 "},"":{"ha":515,"x_min":78,"x_max":447,"o":"m 447 404 l 447 331 l 78 331 l 78 404 l 447 404 m 338 561 q 316 508 338 529 q 263 486 294 486 q 209 508 231 486 q 188 561 188 529 q 209 615 188 593 q 263 636 231 636 q 316 615 294 636 q 338 561 338 593 m 339 163 q 317 109 339 131 q 264 88 296 88 q 210 109 232 88 q 189 163 189 131 q 210 216 189 194 q 264 238 232 238 q 317 216 296 238 q 339 163 339 194 m 339 560 q 317 506 339 528 q 264 485 296 485 q 210 506 232 485 q 189 560 189 528 q 210 613 189 592 q 264 635 232 635 q 317 613 296 635 q 339 560 339 592 m 338 164 q 316 110 338 132 q 263 89 294 89 q 209 110 231 89 q 188 164 188 132 q 209 217 188 196 q 263 239 231 239 q 316 217 294 239 q 338 164 338 196 "},"":{"ha":624,"x_min":40,"x_max":589,"o":"m 206 65 l 386 524 q 315 542 363 542 q 248 526 274 542 q 208 481 222 511 q 190 406 194 450 q 185 303 185 361 l 185 243 q 189 140 185 183 q 206 65 193 96 m 406 507 l 221 40 q 315 3 250 3 q 383 17 357 3 q 422 61 408 32 q 440 135 435 90 q 444 243 444 181 l 444 303 q 437 428 444 376 q 406 507 429 479 m 418 540 q 490 490 458 521 q 544 424 522 460 q 577 348 565 388 q 589 272 589 308 q 569 175 589 226 q 515 81 550 124 q 428 9 479 38 q 315 -19 378 -19 q 259 -12 286 -19 q 207 6 232 -6 l 172 -85 l 150 -78 q 156 -63 150 -78 q 168 -31 161 -49 q 181 2 175 -12 q 186 17 186 17 q 124 69 151 39 q 78 133 97 99 q 50 203 60 168 q 40 272 40 239 q 60 369 40 318 q 115 464 79 421 q 202 535 151 507 q 315 564 253 564 q 357 560 338 564 q 396 550 376 557 l 431 636 l 453 629 l 418 540 "},"":{"ha":750,"x_min":38,"x_max":707,"o":"m 142 888 l 261 888 l 374 672 l 363 667 l 142 888 m 490 104 q 403 16 458 47 q 275 -15 349 -15 q 222 -8 247 -15 q 176 15 196 -1 q 146 61 157 32 q 135 135 135 90 l 135 522 l 38 522 l 38 544 l 254 544 l 254 125 q 268 49 254 72 q 331 25 282 25 q 390 40 361 25 q 442 78 419 56 q 477 128 464 101 q 490 176 490 154 l 490 522 l 393 522 l 393 544 l 610 544 l 610 22 l 707 22 l 707 0 l 490 0 l 490 104 "},"":{"ha":750,"x_min":38,"x_max":707,"o":"m 444 888 l 564 888 l 343 667 l 333 672 l 444 888 m 490 104 q 403 16 458 47 q 275 -15 349 -15 q 222 -8 247 -15 q 176 15 196 -1 q 146 61 157 32 q 135 135 135 90 l 135 522 l 38 522 l 38 544 l 254 544 l 254 125 q 268 49 254 72 q 331 25 282 25 q 390 40 361 25 q 442 78 419 56 q 477 128 464 101 q 490 176 490 154 l 490 522 l 393 522 l 393 544 l 610 544 l 610 22 l 707 22 l 707 0 l 490 0 l 490 104 "},"":{"ha":750,"x_min":38,"x_max":707,"o":"m 538 693 l 529 689 l 350 782 l 172 689 l 163 693 l 344 878 l 354 878 l 538 693 m 490 104 q 403 16 458 47 q 275 -15 349 -15 q 222 -8 247 -15 q 176 15 196 -1 q 146 61 157 32 q 135 135 135 90 l 135 522 l 38 522 l 38 544 l 254 544 l 254 125 q 268 49 254 72 q 331 25 282 25 q 390 40 361 25 q 442 78 419 56 q 477 128 464 101 q 490 176 490 154 l 490 522 l 393 522 l 393 544 l 610 544 l 610 22 l 707 22 l 707 0 l 490 0 l 490 104 "},"":{"ha":750,"x_min":38,"x_max":707,"o":"m 325 801 q 306 755 325 774 q 260 736 288 736 q 213 755 232 736 q 194 801 194 774 q 213 848 194 829 q 260 867 232 867 q 306 848 288 867 q 325 801 325 829 m 536 801 q 517 755 536 774 q 471 736 499 736 q 424 755 443 736 q 406 801 406 774 q 424 848 406 829 q 471 867 443 867 q 517 848 499 867 q 536 801 536 829 m 490 104 q 403 16 458 47 q 275 -15 349 -15 q 222 -8 247 -15 q 176 15 196 -1 q 146 61 157 32 q 135 135 135 90 l 135 522 l 38 522 l 38 544 l 254 544 l 254 125 q 268 49 254 72 q 331 25 282 25 q 390 40 361 25 q 442 78 419 56 q 477 128 464 101 q 490 176 490 154 l 490 522 l 393 522 l 393 544 l 610 544 l 610 22 l 707 22 l 707 0 l 490 0 l 490 104 "},"":{"ha":703,"x_min":42,"x_max":683,"o":"m 503 900 l 622 900 l 401 679 l 392 686 l 503 900 m 42 544 l 368 544 l 368 522 l 261 522 l 422 144 l 567 522 l 464 522 l 464 544 l 683 544 l 683 522 l 592 522 l 306 -225 q 240 -326 282 -289 q 150 -362 199 -362 q 97 -347 114 -362 q 79 -304 79 -331 q 92 -268 79 -283 q 128 -253 104 -253 q 161 -262 149 -253 q 182 -289 174 -271 q 190 -303 186 -297 q 204 -308 193 -308 q 245 -286 224 -308 q 285 -218 267 -264 l 365 -6 l 133 522 l 42 522 l 42 544 "},"":{"ha":719,"x_min":61,"x_max":675,"o":"m 258 115 q 284 75 269 94 q 317 40 299 56 q 359 15 336 25 q 410 6 382 6 q 453 16 432 6 q 490 53 474 26 q 517 127 507 81 q 526 244 526 174 l 526 306 q 517 428 526 382 q 492 500 508 475 q 454 533 476 525 q 404 540 432 540 q 351 531 374 540 q 310 506 328 521 q 281 473 293 490 q 258 439 268 456 l 258 115 m 258 -350 l 349 -350 l 349 -372 l 61 -372 l 61 -350 l 139 -350 l 139 911 l 61 911 l 61 933 l 258 933 l 258 483 q 280 510 268 496 q 309 535 292 524 q 351 556 326 547 q 410 564 375 564 q 500 544 453 564 q 586 486 547 524 q 650 395 625 449 q 675 275 675 342 q 654 167 675 219 q 598 73 633 114 q 515 7 563 32 q 414 -18 468 -18 q 359 -10 383 -18 q 315 12 335 -1 q 282 41 296 25 q 258 71 268 57 l 258 -350 "},"":{"ha":703,"x_min":42,"x_max":683,"o":"m 347 801 q 328 755 347 774 q 282 736 310 736 q 235 755 254 736 q 217 801 217 774 q 235 848 217 829 q 282 867 254 867 q 328 848 310 867 q 347 801 347 829 m 558 801 q 540 755 558 774 q 493 736 521 736 q 447 755 465 736 q 428 801 428 774 q 447 848 428 829 q 493 867 465 867 q 540 848 521 867 q 558 801 558 829 m 42 544 l 368 544 l 368 522 l 261 522 l 422 144 l 567 522 l 464 522 l 464 544 l 683 544 l 683 522 l 592 522 l 306 -225 q 240 -326 282 -289 q 150 -362 199 -362 q 97 -347 114 -362 q 79 -304 79 -331 q 92 -268 79 -283 q 128 -253 104 -253 q 161 -262 149 -253 q 182 -289 174 -271 q 190 -303 186 -297 q 204 -308 193 -308 q 245 -286 224 -308 q 285 -218 267 -264 l 365 -6 l 133 522 l 42 522 l 42 544 "},"":{"ha":0,"x_min":0,"x_max":0,"o":""},"":{"ha":0,"x_min":0,"x_max":0,"o":""},"":{"ha":0,"x_min":0,"x_max":0,"o":""},"":{"ha":632,"x_min":78,"x_max":556,"o":"m 556 414 l 556 339 l 78 339 l 78 414 l 556 414 "},"":{"ha":544,"x_min":85,"x_max":476,"o":"m 476 318 l 476 243 l 256 243 l 206 126 l 138 126 l 188 243 l 85 243 l 85 318 l 218 318 l 267 431 l 85 431 l 85 504 l 297 504 l 347 619 l 414 619 l 365 504 l 476 504 l 476 431 l 333 431 l 286 318 l 476 318 "},"":{"ha":1249,"x_min":76,"x_max":1185,"o":"m 590 421 q 535 487 568 450 q 463 556 501 524 q 383 609 425 588 q 304 631 342 631 q 242 612 268 631 q 199 564 217 593 q 174 499 182 535 q 165 428 165 463 q 172 353 165 389 q 192 288 178 317 q 228 242 206 260 q 285 225 251 225 q 367 247 324 225 q 453 299 411 268 q 531 363 494 329 q 590 421 567 397 m 671 428 q 726 363 693 399 q 798 294 760 326 q 877 240 836 261 q 956 218 918 218 q 1018 236 992 218 q 1062 283 1044 254 q 1088 349 1079 313 q 1096 421 1096 385 q 1090 495 1096 458 q 1069 560 1083 532 q 1033 605 1056 588 q 975 622 1010 622 q 896 602 938 622 q 813 552 854 582 q 735 488 772 522 q 671 428 699 454 m 972 667 q 1058 647 1018 667 q 1125 593 1097 626 q 1169 516 1153 560 q 1185 425 1185 472 q 1168 333 1185 376 q 1122 256 1151 289 q 1052 202 1093 222 q 964 182 1011 182 q 859 200 908 182 q 768 246 810 218 q 691 308 726 274 q 629 375 656 343 q 560 317 600 350 q 476 253 521 283 q 383 203 432 224 q 289 182 335 182 q 203 202 242 182 q 135 256 164 222 q 92 333 107 289 q 76 422 76 376 q 93 515 76 471 q 139 593 110 560 q 208 647 168 626 q 297 667 249 667 q 406 651 360 667 q 491 610 453 636 q 563 549 529 583 q 633 475 596 514 q 702 535 663 501 q 787 597 742 568 q 879 647 832 626 q 972 667 926 667 "},"":{"ha":582,"x_min":111,"x_max":501,"o":"m 501 257 l 501 190 l 117 190 l 117 257 l 501 257 m 476 775 l 476 700 l 231 551 l 476 404 l 476 328 l 111 551 l 476 775 "},"":{"ha":553,"x_min":85,"x_max":475,"o":"m 85 257 l 469 257 l 469 190 l 85 190 l 85 257 m 110 775 l 475 551 l 110 328 l 110 404 l 356 551 l 110 700 l 110 775 "},"":{"ha":522,"x_min":79,"x_max":483,"o":"m 79 503 l 483 503 l 483 474 l 79 474 l 79 503 m 317 969 l 317 571 l 379 571 l 379 557 l 190 557 l 190 571 l 253 571 l 253 953 l 188 946 l 188 958 l 311 974 l 317 969 m 176 346 q 182 367 176 354 q 201 390 188 379 q 235 408 214 400 q 288 415 257 415 q 335 409 313 415 q 377 390 358 403 q 407 359 396 378 q 418 314 418 340 q 407 272 418 290 q 381 242 396 254 q 349 223 365 229 q 321 215 332 217 q 398 177 374 204 q 422 110 422 150 q 412 62 422 85 q 383 22 401 39 q 338 -5 364 6 q 282 -15 313 -15 q 240 -10 261 -15 q 203 5 219 -6 q 175 31 186 15 q 164 68 164 47 q 176 100 164 89 q 204 111 188 111 q 231 101 219 111 q 243 69 243 92 q 232 42 243 50 q 214 32 221 35 q 208 25 208 31 q 213 17 208 21 q 242 3 224 7 q 275 -1 260 -1 q 338 25 313 -1 q 363 108 363 51 q 358 144 363 126 q 344 177 354 163 q 315 201 333 192 q 268 210 296 210 q 246 209 258 210 q 225 208 233 208 q 211 217 211 208 q 225 226 211 226 q 246 225 233 226 q 268 224 258 224 q 331 246 306 224 q 356 319 356 268 q 353 348 356 333 q 344 374 351 363 q 322 394 336 386 q 283 401 308 401 q 249 398 265 401 q 224 388 232 394 q 219 381 219 385 q 225 375 219 376 q 243 364 236 372 q 250 340 250 356 q 240 316 250 325 q 213 307 229 307 q 187 317 197 307 q 176 346 176 326 "},"":{"ha":522,"x_min":79,"x_max":483,"o":"m 79 515 l 483 515 l 483 485 l 79 485 l 79 515 m 317 969 l 317 571 l 379 571 l 379 557 l 190 557 l 190 571 l 253 571 l 253 953 l 188 946 l 188 958 l 311 974 l 317 969 m 349 429 l 349 139 l 421 139 l 421 203 l 435 203 l 435 67 l 421 67 l 421 125 l 349 125 l 349 14 l 404 14 l 404 -1 l 235 -1 l 235 14 l 289 14 l 289 125 l 140 125 l 140 140 q 159 175 140 140 q 206 251 178 210 q 296 389 268 349 q 324 429 324 429 l 349 429 m 154 139 l 289 139 l 289 357 q 279 342 288 354 q 260 315 271 331 q 240 283 250 299 q 221 254 229 267 q 201 221 211 239 q 181 186 190 203 q 163 156 171 169 q 154 139 156 143 "},"":{"ha":522,"x_min":68,"x_max":474,"o":"m 68 496 l 474 496 l 474 465 l 68 465 l 68 496 m 201 900 q 226 889 217 900 q 236 865 236 878 q 222 836 236 846 q 193 826 208 826 q 163 838 174 826 q 151 869 151 850 q 192 939 151 914 q 288 964 232 964 q 333 959 310 964 q 376 942 357 954 q 406 912 394 931 q 418 867 418 893 q 385 788 418 825 q 308 711 353 750 l 176 597 l 351 597 q 392 615 379 597 q 413 663 406 632 q 421 682 417 682 q 425 667 425 682 l 425 661 l 418 546 l 142 546 l 142 578 l 294 722 q 340 784 326 751 q 354 858 354 817 q 271 949 354 949 q 213 936 242 949 q 185 906 185 924 q 190 899 185 899 l 193 899 q 201 900 196 900 m 167 346 q 172 367 167 354 q 191 390 178 379 q 226 408 204 400 q 278 415 247 415 q 326 409 303 415 q 367 390 349 403 q 397 359 386 378 q 408 314 408 340 q 397 272 408 290 q 371 242 386 254 q 339 223 356 229 q 311 215 322 217 q 388 177 364 204 q 413 110 413 150 q 402 62 413 85 q 373 22 392 39 q 328 -5 354 6 q 272 -15 303 -15 q 231 -10 251 -15 q 193 5 210 -6 q 165 31 176 15 q 154 68 154 47 q 166 100 154 89 q 194 111 178 111 q 222 101 210 111 q 233 69 233 92 q 222 42 233 50 q 204 32 211 35 q 199 25 199 31 q 203 17 199 21 q 232 3 214 7 q 265 -1 250 -1 q 328 25 303 -1 q 353 108 353 51 q 349 144 353 126 q 334 177 344 163 q 305 201 324 192 q 258 210 286 210 q 236 209 249 210 q 215 208 224 208 q 201 217 201 208 q 215 226 201 226 q 236 225 224 226 q 258 224 249 224 q 321 246 296 224 q 346 319 346 268 q 344 348 346 333 q 334 374 342 363 q 313 394 326 386 q 274 401 299 401 q 239 398 256 401 q 214 388 222 394 q 210 381 210 385 q 215 375 210 376 q 233 364 226 372 q 240 340 240 356 q 230 316 240 325 q 203 307 219 307 q 177 317 188 307 q 167 346 167 326 "},"":{"ha":522,"x_min":68,"x_max":474,"o":"m 68 499 l 474 499 l 474 469 l 68 469 l 68 499 m 171 908 q 176 929 171 917 q 195 952 182 942 q 230 970 208 963 q 282 978 251 978 q 330 972 307 978 q 372 953 353 965 q 401 922 390 940 q 413 876 413 903 q 401 835 413 853 q 375 804 390 817 q 343 785 360 792 q 315 778 326 779 q 392 740 368 767 q 417 672 417 713 q 406 624 417 647 q 377 585 396 601 q 333 558 358 568 q 276 547 307 547 q 235 552 256 547 q 197 567 214 557 q 169 594 181 578 q 158 631 158 610 q 170 663 158 651 q 199 674 182 674 q 226 664 214 674 q 238 632 238 654 q 226 605 238 613 q 208 594 215 597 q 203 588 203 593 q 207 578 203 582 q 236 563 218 568 q 269 558 254 558 q 332 586 307 558 q 357 671 357 614 q 353 707 357 689 q 338 740 349 725 q 309 763 328 754 q 263 772 290 772 q 240 772 253 772 q 219 771 228 771 q 206 779 206 771 q 219 789 206 789 q 240 788 228 789 q 263 786 253 786 q 325 808 300 786 q 350 882 350 831 q 348 911 350 896 q 338 939 346 926 q 317 960 331 951 q 278 968 303 968 q 243 963 260 968 q 218 951 226 958 q 214 944 214 949 q 219 938 214 939 q 238 926 231 935 q 244 903 244 918 q 234 878 244 888 q 207 869 224 869 q 181 879 192 869 q 171 908 171 889 m 349 429 l 349 139 l 421 139 l 421 203 l 435 203 l 435 67 l 421 67 l 421 125 l 349 125 l 349 14 l 404 14 l 404 -1 l 235 -1 l 235 14 l 289 14 l 289 125 l 140 125 l 140 140 q 159 175 140 140 q 206 251 178 210 q 296 389 268 349 q 324 429 324 429 l 349 429 m 154 139 l 289 139 l 289 357 q 279 342 288 354 q 260 315 271 331 q 240 283 250 299 q 221 254 229 267 q 201 221 211 239 q 181 186 190 203 q 163 156 171 169 q 154 139 156 143 "},"":{"ha":1090,"x_min":90,"x_max":986,"o":"m 986 896 l 986 0 l 90 0 l 90 896 l 986 896 m 956 867 l 119 867 l 119 31 l 956 31 l 956 867 "},"":{"ha":946,"x_min":42,"x_max":869,"o":"m 115 369 q 180 258 154 315 q 233 119 206 201 q 283 240 250 175 q 363 376 317 306 q 467 516 410 446 q 589 651 524 586 q 725 770 654 715 q 869 864 796 825 l 869 714 q 681 598 775 669 q 503 436 588 526 q 349 241 419 346 q 232 28 279 136 q 144 156 193 94 q 42 258 94 218 l 115 369 "},"":{"ha":1139,"x_min":74,"x_max":1049,"o":"m 475 379 l 647 379 l 647 554 l 475 554 l 475 379 m 418 751 q 383 856 418 813 q 276 899 347 899 q 170 860 211 899 q 129 753 129 822 q 168 651 129 690 q 278 611 207 611 l 418 611 l 418 751 m 276 554 q 195 569 232 554 q 131 611 158 585 q 89 674 104 638 q 74 756 74 711 q 89 832 74 796 q 131 895 104 868 q 194 938 157 922 q 272 954 231 954 q 360 938 322 954 q 424 895 399 922 q 463 831 450 868 q 475 753 475 794 l 475 611 l 647 611 l 647 753 q 660 831 647 794 q 699 895 674 868 q 763 938 725 922 q 850 954 800 954 q 928 940 892 954 q 992 899 965 925 q 1033 835 1018 872 q 1049 756 1049 799 q 1033 676 1049 713 q 989 612 1017 639 q 924 569 961 585 q 846 554 888 554 l 704 554 l 704 379 l 846 379 q 924 365 888 379 q 989 323 961 350 q 1033 259 1017 296 q 1049 179 1049 222 q 1033 101 1049 138 q 992 39 1018 65 q 929 -3 965 13 q 850 -18 893 -18 q 763 -3 800 -18 q 699 40 725 13 q 660 103 674 67 q 647 182 647 140 l 647 324 l 475 324 l 475 182 q 463 103 475 140 q 424 40 450 67 q 360 -3 399 13 q 272 -18 322 -18 q 193 -3 229 -18 q 131 38 157 11 q 89 100 104 64 q 74 179 74 136 q 90 259 74 222 q 133 323 106 296 q 198 365 161 350 q 276 379 235 379 l 418 379 l 418 554 l 276 554 m 844 611 q 953 651 914 611 q 993 753 993 690 q 951 860 993 822 q 846 899 910 899 q 740 856 775 899 q 704 751 704 813 l 704 611 l 844 611 m 278 324 q 168 284 207 324 q 129 182 129 244 q 170 74 129 111 q 276 36 211 36 q 383 78 347 36 q 418 183 418 121 l 418 324 l 278 324 m 704 183 q 740 78 704 121 q 846 36 775 36 q 951 74 910 36 q 993 182 993 111 q 953 284 993 244 q 844 324 914 324 l 704 324 l 704 183 "},"":{"ha":374,"x_min":0,"x_max":0,"o":""},"":{"ha":624,"x_min":39,"x_max":590,"o":"m 315 603 l 85 374 l 314 144 l 543 375 l 315 603 m 39 374 l 315 650 l 590 375 l 314 99 l 39 374 "},"":{"ha":1149,"x_min":113,"x_max":1060,"o":"m 388 772 q 461 763 424 772 q 524 738 499 754 q 572 708 556 717 q 611 699 589 699 q 657 707 635 699 q 707 738 679 715 q 767 765 732 757 q 838 772 801 772 q 907 763 875 772 q 964 740 939 754 q 1006 709 989 726 q 1028 675 1022 692 q 938 590 965 644 q 911 464 911 535 q 925 396 911 428 q 960 338 939 364 q 1008 295 982 313 q 1060 269 1035 278 q 1024 194 1049 242 q 963 98 999 146 q 878 15 926 50 q 771 -19 829 -19 q 665 29 707 -19 q 643 48 656 39 q 611 57 631 57 q 578 49 594 57 q 550 29 561 42 q 451 -19 510 -19 q 384 3 421 -19 q 310 63 347 25 q 236 150 272 100 q 173 256 200 200 q 129 369 146 311 q 113 481 113 426 q 134 606 113 551 q 192 697 156 660 q 279 753 229 735 q 388 772 329 772 m 764 975 q 783 951 783 975 q 766 888 783 922 q 723 825 749 854 q 668 776 697 796 q 614 757 639 757 q 594 763 599 757 q 589 779 589 769 q 606 847 589 813 q 647 910 622 882 q 703 957 672 939 q 764 975 735 975 "}}}
